<?xml version="1.0" encoding="UTF-8"?>
<svg id="Layer_1" xmlns="http://www.w3.org/2000/svg" version="1.1" viewBox="0 0 708.74 181.34">
  <!-- Generator: Adobe Illustrator 30.3.0, SVG Export Plug-In . SVG Version: 2.1.3 Build 182)  -->
  <defs>
    <style>
      .st0 {
        fill: #2e7d32;
      }
    </style>
  </defs>
  <path class="st0" d="M135.92,93.97c0,53.63-67.96,87.37-67.96,87.37,0,0-67.96-33.74-67.96-87.37,0-13.85,7.15-39.43,34.75-39.43,22.09,0,33.21,19.54,33.21,19.54,0,0,11.12-19.54,33.21-19.54,27.61,0,34.75,25.57,34.75,39.43Z"/>
  <path class="st0" d="M121.47,0c-.07.39-.15.78-.22,1.15s-.15.73-.22,1.09c-.07.35-.15.7-.22,1.03s-.15.66-.22.97c-.08.31-.15.62-.23.92s-.16.59-.24.86-.16.55-.25.81c-.08.26-.17.52-.26.77s-.18.49-.27.72-.19.46-.29.68-.2.43-.31.63-.22.4-.33.59-.23.38-.35.55c-.12.18-.25.35-.38.52s-.26.33-.4.48-.28.31-.43.45c-.15.15-.3.29-.46.42-.16.14-.32.27-.49.39s-.35.25-.53.37-.37.23-.57.34c-.19.11-.4.22-.6.32-.21.1-.42.2-.65.3-.22.1-.45.19-.69.28s-.48.18-.73.27-.51.17-.78.26-.54.16-.83.24-.58.16-.88.23c-.3.08-.61.15-.93.23-.32.07-.65.15-.99.22s-.69.15-1.05.22-.73.14-1.11.22c-.38.07-.77.14-1.17.22.4.07.79.14,1.17.22.38.07.75.14,1.11.22.36.07.71.14,1.05.22.34.07.67.15.99.22s.63.15.93.23.6.15.88.23c.29.08.56.16.83.24s.53.17.78.26.5.18.73.27c.24.09.47.19.69.28.22.1.44.2.65.3.21.1.41.21.6.32s.38.23.57.34c.18.12.36.24.53.37.17.13.33.26.49.39.16.14.31.28.46.42s.29.3.43.45c.14.16.27.32.4.48.13.17.25.34.38.52.12.18.24.36.35.55s.22.39.33.59.21.42.31.63c.1.22.2.44.29.68.09.23.19.47.27.72s.18.5.26.77c.08.26.17.53.25.81s.16.57.24.86c.08.3.15.6.23.92.08.31.15.64.22.97s.15.68.22,1.03.15.71.22,1.09c.07-.39.15-.78.22-1.15s.15-.73.22-1.09c.07-.35.15-.7.22-1.03s.15-.66.22-.97c.08-.31.15-.62.23-.92s.16-.59.24-.86c.08-.28.16-.55.25-.81.08-.26.17-.52.26-.77s.18-.49.27-.72.19-.46.29-.68c.1-.22.2-.43.31-.63.11-.2.22-.4.33-.59s.23-.38.35-.55c.12-.18.25-.35.38-.52s.26-.33.4-.48c.14-.16.28-.31.43-.45s.3-.29.46-.42c.16-.14.32-.27.49-.39.17-.13.35-.25.53-.37s.37-.23.57-.34c.19-.11.4-.22.6-.32.21-.1.42-.2.65-.3s.45-.19.69-.28.48-.18.73-.27.51-.17.78-.26c.27-.08.54-.16.83-.24s.58-.16.88-.23c.3-.08.61-.15.93-.23.32-.07.65-.15.99-.22.34-.07.69-.15,1.05-.22s.73-.14,1.11-.22c.38-.07.77-.14,1.17-.22-.4-.07-.79-.14-1.17-.22-.38-.07-.75-.14-1.11-.22-.36-.07-.71-.14-1.05-.22-.34-.07-.67-.15-.99-.22s-.63-.15-.93-.23-.6-.15-.88-.23c-.29-.08-.56-.16-.83-.24s-.53-.17-.78-.26-.5-.18-.73-.27c-.24-.09-.47-.19-.69-.28-.22-.1-.44-.2-.65-.3-.21-.1-.41-.21-.6-.32s-.38-.23-.57-.34c-.18-.12-.36-.24-.53-.37s-.33-.26-.49-.39c-.16-.14-.31-.28-.46-.42-.15-.15-.29-.3-.43-.45-.14-.16-.27-.32-.4-.48-.13-.17-.25-.34-.38-.52-.12-.18-.24-.36-.35-.55s-.22-.39-.33-.59-.21-.42-.31-.63c-.1-.22-.2-.44-.29-.68-.09-.23-.19-.47-.27-.72s-.18-.5-.26-.77c-.08-.26-.17-.53-.25-.81s-.16-.57-.24-.86c-.08-.3-.15-.6-.23-.92-.08-.31-.15-.64-.22-.97s-.15-.68-.22-1.03-.15-.71-.22-1.09c-.07-.37-.15-.75-.22-1.15Z"/>
  <path class="st0" d="M151.84,11.87c-.16.83-.31,1.64-.47,2.43-.15.79-.31,1.55-.46,2.3-.16.75-.31,1.47-.47,2.18-.16.7-.32,1.39-.48,2.06s-.32,1.31-.49,1.94-.33,1.24-.5,1.83-.35,1.17-.52,1.72-.36,1.1-.55,1.62-.38,1.03-.58,1.52-.4.97-.61,1.43-.43.91-.65,1.34-.46.85-.69,1.25-.49.8-.74,1.17-.52.74-.79,1.1c-.27.35-.56.69-.85,1.02-.29.33-.6.65-.91.96-.31.31-.64.61-.97.89s-.68.57-1.04.83c-.36.27-.73.53-1.12.78s-.78.49-1.2.73-.84.46-1.28.68-.89.43-1.36.64-.95.41-1.46.6c-.5.19-1.02.38-1.55.57-.53.18-1.08.36-1.65.54-.57.18-1.15.35-1.76.51-.6.17-1.22.33-1.86.49s-1.3.32-1.98.48-1.38.31-2.1.47c-.72.15-1.46.31-2.22.46s-1.54.3-2.34.46c-.8.15-1.63.3-2.47.46.85.15,1.67.31,2.47.46.8.15,1.58.3,2.34.46.76.15,1.5.31,2.22.46.72.15,1.42.31,2.1.47s1.34.32,1.98.48c.64.16,1.26.33,1.86.49.6.17,1.19.34,1.76.52.57.18,1.12.36,1.65.54s1.05.37,1.55.57c.5.19.99.4,1.46.6.47.21.92.42,1.36.64s.87.45,1.28.68.81.48,1.2.73.76.51,1.12.78.71.55,1.04.83c.34.29.66.58.97.89s.62.63.91.96c.29.33.58.67.85,1.02s.54.72.79,1.1.5.77.74,1.17.47.82.69,1.25.44.88.65,1.34c.21.46.42.94.61,1.43.2.49.39,1,.58,1.52s.37,1.06.55,1.62.35,1.13.52,1.72.34,1.2.5,1.83c.16.63.33,1.27.49,1.94s.32,1.35.48,2.06c.16.71.31,1.43.47,2.18s.31,1.51.46,2.3c.15.79.31,1.6.47,2.43.16-.83.31-1.64.47-2.43.15-.79.31-1.55.46-2.3.16-.75.31-1.47.47-2.18.16-.7.32-1.39.48-2.06.16-.67.32-1.31.49-1.94s.33-1.24.5-1.83.35-1.17.52-1.72.36-1.1.55-1.62.38-1.03.58-1.52.4-.97.61-1.43.43-.91.65-1.34.46-.85.69-1.25c.24-.4.49-.8.74-1.17s.52-.74.79-1.1c.27-.35.56-.69.85-1.02.29-.33.6-.65.91-.96.31-.31.64-.61.97-.89.34-.29.68-.57,1.04-.83s.73-.53,1.12-.78.78-.49,1.2-.73.84-.46,1.28-.68.89-.43,1.36-.64.95-.41,1.46-.6c.5-.19,1.02-.38,1.55-.57.53-.18,1.08-.36,1.65-.54s1.15-.35,1.76-.52c.6-.17,1.22-.33,1.86-.49s1.3-.32,1.98-.48,1.38-.31,2.1-.47c.72-.15,1.46-.31,2.22-.46.76-.15,1.54-.3,2.34-.46.8-.15,1.63-.3,2.47-.46-.85-.15-1.67-.31-2.47-.46-.8-.15-1.58-.3-2.34-.46s-1.5-.31-2.22-.46c-.72-.15-1.42-.31-2.1-.47-.68-.16-1.34-.32-1.98-.48s-1.26-.33-1.86-.49c-.6-.17-1.19-.34-1.76-.51s-1.12-.36-1.65-.54-1.05-.37-1.55-.57c-.5-.19-.99-.4-1.46-.6-.47-.21-.92-.42-1.36-.64s-.87-.45-1.28-.68-.81-.48-1.2-.73-.76-.51-1.12-.78-.71-.55-1.04-.83-.66-.58-.97-.89-.62-.63-.91-.96c-.29-.33-.58-.67-.85-1.02s-.54-.72-.79-1.1-.5-.77-.74-1.17-.47-.82-.69-1.25-.44-.88-.65-1.34-.42-.94-.61-1.43c-.2-.49-.39-1-.58-1.52s-.37-1.06-.55-1.62-.35-1.13-.52-1.72-.34-1.2-.5-1.83-.33-1.27-.49-1.94-.32-1.35-.48-2.06-.31-1.43-.47-2.18-.31-1.51-.46-2.3c-.15-.79-.31-1.6-.47-2.43Z"/>
  <path class="st0" d="M373.54,94.73c2.75-8.9,4.87-15.8,8.99-21.69,3.74-5.39,8.86-9.65,16.48-9.65,6.12,0,10.73,3.26,10.73,7.77,0,2.76-2.37,5.39-5.24,5.39-2.25,0-4.62-1.88-4.62-4.89,0-2.13,1.25-2.76,1.25-3.89,0-1-1-1.63-2.75-1.63-6.99,0-11.61,8.78-15.23,28.58h13.36l-.75,4.01h-13.48l-8.99,40.12c-5.24,23.19-13.61,35.48-24.96,35.48-5.62,0-9.86-3.26-9.86-7.65,0-2.88,2.12-5.27,4.74-5.27,2.87,0,4.74,2.01,4.74,4.64,0,1.63-1.12,2.26-1.12,3.64,0,1.13,1,2,2.5,2,5.24,0,9.24-6.77,12.11-20.31l10.99-52.66h-11.36l.87-4.01h11.61v.02h0Z"/>
  <path class="st0" d="M418.02,134.8c-5.77,6.62-12.13,9.47-18.69,9.47-9.34,0-14.61-5.93-14.61-15.86,0-12.78,7.45-25.9,17.89-32.29,3.88-2.4,7.85-3.42,11.93-3.42,8.05,0,14.01,5.93,14.01,15.97,0,8.67-3.98,18.71-10.54,26.13h.01ZM413.15,95.1c-4.37,0-8.75,3.54-12.72,10.38-4.57,7.99-7.35,17-7.35,26.01,0,6.85,3.08,10.38,7.75,10.38,4.37,0,8.15-3.31,12.03-9.47,4.57-7.19,7.35-17.91,7.35-26.58,0-6.96-2.78-10.72-7.06-10.72h0Z"/>
  <path class="st0" d="M442.64,114.1c1.94-4.91,5.4-11.11,9.58-16.14,2.65-3.16,5.7-5.26,8.05-5.26,2.85,0,4.79,2.46,4.79,5.96s-1.73,6.32-4.79,6.32c-1.83,0-2.65-1.29-3.57-3.04-.61-1.17-.92-1.64-1.63-1.64-1.83,0-4.69,3.86-8.35,10.99-4.38,8.65-6.21,13.33-11.31,32.98h-7.74l8.25-34.15c1.43-6.08,1.63-7.13,1.63-9.59s-1.83-3.04-3.87-3.04c-.82,0-1.63.12-3.16.35v-1.99l15.79-3.16.31.23-5.6,25.26,1.63-4.09h-.01,0Z"/>
  <path class="st0" d="M502.55,93.14c2.81,1.51,4.97,3.5,6.48,5.96v-7.48h16.18v52.71c0,4.86-.96,9.26-2.89,13.2s-4.86,7.08-8.8,9.42c-3.94,2.33-8.85,3.5-14.71,3.5-7.82,0-14.16-1.85-19.02-5.54s-7.63-8.69-8.33-15h15.99c.5,2.02,1.7,3.61,3.6,4.78,1.89,1.17,4.23,1.75,7,1.75,3.34,0,6.01-.96,8-2.89s2.98-5,2.98-9.23v-7.48c-1.58,2.46-3.75,4.46-6.53,6.01-2.78,1.55-6.03,2.32-9.75,2.32-4.35,0-8.3-1.12-11.83-3.36s-6.33-5.43-8.37-9.56c-2.05-4.13-3.08-8.91-3.08-14.34s1.02-10.19,3.08-14.29c2.05-4.1,4.84-7.25,8.37-9.46s7.48-3.31,11.83-3.31c3.72,0,6.99.76,9.79,2.27v.02h0ZM505.67,108.47c-2.24-2.33-4.97-3.5-8.19-3.5s-5.95,1.15-8.18,3.45c-2.24,2.3-3.36,5.47-3.36,9.51s1.12,7.24,3.36,9.6c2.24,2.37,4.97,3.55,8.18,3.55s5.95-1.17,8.19-3.5,3.36-5.52,3.36-9.56-1.12-7.22-3.36-9.56h0Z"/>
  <path class="st0" d="M545.75,141.87c-4.13-2.21-7.38-5.36-9.75-9.46s-3.55-8.89-3.55-14.38,1.2-10.2,3.6-14.34c2.4-4.13,5.68-7.3,9.84-9.51,4.16-2.21,8.83-3.31,14-3.31s9.84,1.1,14,3.31,7.44,5.38,9.84,9.51,3.6,8.91,3.6,14.34-1.22,10.2-3.64,14.34c-2.43,4.13-5.74,7.3-9.94,9.51-4.2,2.21-8.88,3.31-14.05,3.31s-9.83-1.1-13.96-3.31h.01ZM567.6,127.77c2.18-2.27,3.26-5.52,3.26-9.75s-1.06-7.48-3.17-9.75-4.72-3.41-7.81-3.41-5.77,1.12-7.85,3.36c-2.08,2.24-3.12,5.51-3.12,9.79s1.02,7.48,3.07,9.75c2.05,2.27,4.62,3.41,7.71,3.41s5.73-1.13,7.9-3.41h0Z"/>
  <path class="st0" d="M606.02,141.87c-4.13-2.21-7.38-5.36-9.75-9.46s-3.55-8.89-3.55-14.38,1.2-10.2,3.6-14.34c2.4-4.13,5.68-7.3,9.84-9.51,4.16-2.21,8.83-3.31,14-3.31s9.84,1.1,14,3.31,7.44,5.38,9.84,9.51,3.6,8.91,3.6,14.34-1.22,10.2-3.64,14.34c-2.43,4.13-5.74,7.3-9.94,9.51-4.2,2.21-8.88,3.31-14.05,3.31s-9.83-1.1-13.96-3.31h.01ZM627.88,127.77c2.18-2.27,3.26-5.52,3.26-9.75s-1.06-7.48-3.17-9.75-4.72-3.41-7.81-3.41-5.77,1.12-7.85,3.36c-2.08,2.24-3.12,5.51-3.12,9.79s1.02,7.48,3.07,9.75c2.05,2.27,4.62,3.41,7.71,3.41s5.73-1.13,7.9-3.41h0Z"/>
  <path class="st0" d="M656.08,103.64c2.05-4.1,4.84-7.25,8.37-9.46,3.53-2.21,7.48-3.31,11.83-3.31,3.47,0,6.64.73,9.51,2.18s5.12,3.41,6.77,5.87v-24.51h16.18v70.02h-16.18v-7.57c-1.51,2.52-3.68,4.54-6.48,6.06-2.81,1.51-6.07,2.27-9.79,2.27-4.35,0-8.3-1.12-11.83-3.36s-6.33-5.43-8.37-9.56c-2.05-4.13-3.08-8.91-3.08-14.34s1.02-10.19,3.08-14.29h-.01ZM689.2,108.47c-2.24-2.33-4.97-3.5-8.19-3.5s-5.95,1.15-8.18,3.45c-2.24,2.3-3.36,5.47-3.36,9.51s1.12,7.24,3.36,9.6c2.24,2.37,4.97,3.55,8.18,3.55s5.95-1.17,8.19-3.5,3.36-5.52,3.36-9.56-1.12-7.22-3.36-9.56h0Z"/>
  <path class="st0" d="M162.88,142.81c-3.6-1.58-6.43-3.74-8.52-6.48s-3.25-5.82-3.5-9.23h15.99c.19,1.83,1.04,3.31,2.55,4.45,1.51,1.13,3.37,1.7,5.58,1.7,2.02,0,3.58-.39,4.68-1.18,1.1-.79,1.66-1.81,1.66-3.07,0-1.51-.79-2.63-2.37-3.36-1.58-.72-4.13-1.53-7.66-2.41-3.79-.88-6.94-1.81-9.46-2.79s-4.7-2.52-6.53-4.64c-1.83-2.11-2.74-4.97-2.74-8.56,0-3.03.84-5.79,2.51-8.28s4.13-4.46,7.38-5.91,7.11-2.18,11.59-2.18c6.62,0,11.84,1.64,15.66,4.92s6.01,7.63,6.58,13.06h-14.95c-.25-1.83-1.06-3.28-2.41-4.35-1.36-1.07-3.14-1.61-5.35-1.61-1.89,0-3.34.36-4.35,1.09-1.01.73-1.51,1.72-1.51,2.98,0,1.51.8,2.65,2.41,3.41s4.12,1.51,7.52,2.27c3.91,1.01,7.1,2,9.56,2.98,2.46.98,4.62,2.55,6.48,4.73s2.82,5.09,2.89,8.75c0,3.09-.87,5.85-2.6,8.28-1.74,2.43-4.23,4.34-7.48,5.73s-7.02,2.08-11.31,2.08c-4.61,0-8.71-.79-12.3-2.37h0Z"/>
  <path class="st0" d="M253.54,97.06c3.66,4.01,5.49,9.51,5.49,16.51v30.85h-16.09v-28.67c0-3.53-.92-6.28-2.74-8.23-1.83-1.95-4.29-2.93-7.38-2.93s-5.55.98-7.38,2.93c-1.83,1.96-2.74,4.7-2.74,8.23v28.67h-16.18v-70.02h16.18v24.32c1.64-2.33,3.88-4.19,6.72-5.58s6.02-2.08,9.56-2.08c6.06,0,10.91,2,14.57,6.01h0Z"/>
  <path class="st0" d="M271.47,83.62c-1.8-1.67-2.7-3.74-2.7-6.2s.9-4.62,2.7-6.29c1.8-1.67,4.12-2.51,6.95-2.51s5.06.84,6.86,2.51,2.7,3.77,2.7,6.29-.9,4.53-2.7,6.2c-1.8,1.67-4.08,2.51-6.86,2.51s-5.16-.84-6.95-2.51ZM286.46,91.62v52.8h-16.18v-52.8s16.18,0,16.18,0Z"/>
  <path class="st0" d="M320.91,93.13c2.78-1.51,6.02-2.27,9.75-2.27,4.35,0,8.29,1.1,11.83,3.31,3.53,2.21,6.32,5.36,8.37,9.46s3.07,8.86,3.07,14.29-1.03,10.2-3.07,14.34c-2.05,4.13-4.84,7.32-8.37,9.56s-7.48,3.36-11.83,3.36c-3.66,0-6.89-.76-9.7-2.27-2.81-1.51-5-3.47-6.58-5.87v32.55h-16.18v-77.97h16.18v7.48c1.58-2.46,3.75-4.45,6.53-5.96h0ZM334.11,108.42c-2.24-2.3-5-3.45-8.28-3.45s-5.95,1.17-8.18,3.5c-2.24,2.33-3.36,5.52-3.36,9.56s1.12,7.22,3.36,9.56c2.24,2.33,4.97,3.5,8.18,3.5s5.96-1.18,8.23-3.55,3.41-5.57,3.41-9.6-1.12-7.21-3.36-9.51h0Z"/>
</svg>
