<svg width="124" height="91" viewBox="0 0 124 91" fill="none" xmlns="http://www.w3.org/2000/svg">
<mask id="mask0_5_867" style="mask-type:alpha" maskUnits="userSpaceOnUse" x="0" y="0" width="124" height="91">
<path fill-rule="evenodd" clip-rule="evenodd" d="M36.106 13.1761C36.1202 13.2014 36.1344 13.2267 36.1494 13.2521C36.5252 13.1984 36.9011 13.1418 37.2777 13.0926C37.448 13.0702 37.5556 13.0024 37.5818 12.8146C37.6311 12.4554 37.6969 12.0984 37.7559 11.74C37.735 11.7258 37.7133 11.7109 37.6924 11.696C37.1634 12.1893 36.6351 12.6827 36.106 13.1761ZM76.5997 26.2664C76.5818 26.294 76.5638 26.3223 76.5452 26.3499C77.2334 27.0593 77.9216 27.7696 78.6097 28.4798C78.6404 28.4656 78.6703 28.4522 78.7002 28.4381V27.0646C78.0097 26.8022 77.3043 26.5347 76.5997 26.2664ZM8.32864 16.8815C8.34434 16.8501 8.36078 16.8196 8.37647 16.789C7.36323 15.7174 6.35149 14.6449 5.33825 13.5725C5.29565 13.6553 5.29939 13.7007 5.32106 13.7328C5.94948 14.6695 6.57789 15.6056 7.21079 16.5394C7.26011 16.6117 7.33185 16.7018 7.40732 16.719C7.71144 16.7868 8.02079 16.8293 8.32864 16.8815ZM41.2671 12.4703C41.2716 12.439 41.2761 12.4077 41.2806 12.3764C40.5423 11.971 39.8048 11.5656 39.0105 11.1289C38.9081 11.7303 38.8177 12.2594 38.7146 12.8623C39.6113 12.7244 40.4392 12.5977 41.2671 12.4703ZM20.1049 77.8274C20.1445 77.8348 20.1841 77.8423 20.223 77.8497C20.7064 76.9681 21.1899 76.0865 21.6913 75.1728C21.2101 75.0051 20.7991 74.862 20.3418 74.7025C20.2596 75.7831 20.1819 76.8049 20.1049 77.8274ZM56.3566 12.6529C55.6632 13.1515 55.0422 13.5979 54.3593 14.0882C55.1648 14.4065 55.9015 14.6971 56.7138 15.0183C56.5912 14.2045 56.4829 13.4883 56.3566 12.6529ZM71.8182 21.3835C72.1029 21.8366 73.4509 23.1982 73.7431 23.3316C73.7991 22.4552 73.8544 21.5847 73.9149 20.6427C73.1625 20.9088 72.4952 21.1443 71.8182 21.3835ZM9.5003 16.3605C9.57053 15.9879 9.61089 15.7211 9.67216 15.4588C9.73044 15.2076 9.66767 15.0459 9.44351 14.8857C8.27783 14.0517 7.12785 13.1969 5.97115 12.3511C5.85458 12.2661 5.72905 12.1931 5.60725 12.1141C5.59006 12.1349 5.57213 12.1566 5.55494 12.1782C6.84316 13.5435 8.13212 14.9095 9.5003 16.3605ZM15.9586 75.2846C15.9205 75.289 15.8824 75.2943 15.845 75.2987C15.7075 76.3451 15.57 77.3914 15.4295 78.4608C16.3217 78.8178 17.1758 79.1591 18.0306 79.5012C18.0501 79.4788 18.0695 79.4557 18.0897 79.4334C17.379 78.0502 16.6692 76.667 15.9586 75.2846ZM19.5296 42.024C19.4922 42.0113 19.4541 41.9987 19.4167 41.986C18.3975 43.2671 17.3783 44.5482 16.3591 45.8293C16.3778 45.8568 16.3972 45.8837 16.4166 45.9112C17.3551 45.7368 18.2929 45.5625 19.2531 45.3836C19.348 44.2344 19.4384 43.1292 19.5296 42.024ZM43.7345 81.9248C43.7651 81.93 43.7957 81.9345 43.8264 81.9397C44.4114 80.8673 44.9965 79.7948 45.5846 78.7179C44.6999 78.3349 43.1554 77.8661 42.8311 77.8825C43.1329 79.2314 43.4333 80.5781 43.7345 81.9248ZM21.7174 27.6936C22.6276 26.7441 23.5183 25.814 24.409 24.8855C24.3918 24.8556 24.3746 24.8273 24.3574 24.7983C22.6066 25.1731 20.8551 25.5487 18.9871 25.9489C19.954 26.5667 20.8223 27.122 21.7174 27.6936ZM3.76235 41.1908L3.69659 41.2787C4.18602 42.302 4.6762 43.326 5.18208 44.3842C6.19756 43.7001 7.16521 43.0495 8.21507 42.3422C6.66457 41.9413 5.21346 41.5664 3.76235 41.1908ZM31.6929 58.8421C31.7041 58.8771 31.7161 58.9114 31.7273 58.9464C31.876 58.9598 32.0247 58.977 32.1741 58.9867C32.7839 59.0277 33.3981 59.0359 34.0026 59.1163C34.3635 59.164 34.6153 59.0791 34.8582 58.8249C35.9028 57.7317 36.9579 56.6488 38.007 55.5607C38.0839 55.481 38.1475 55.3878 38.2162 55.3014C38.2013 55.2872 38.1871 55.2738 38.1721 55.2597C36.0126 56.4536 33.8524 57.6482 31.6929 58.8421ZM29.502 32.13C29.5312 32.1338 29.5603 32.1367 29.5895 32.1405C30.1775 30.1559 30.7649 28.1705 31.3529 26.1859C31.323 26.1718 31.2931 26.1569 31.2633 26.1419C30.3382 27.0213 29.4139 27.9015 28.4881 28.7816C28.8325 29.9196 29.1673 31.0248 29.502 32.13ZM16.0325 19.7104C15.987 19.8826 15.9481 19.9966 15.9272 20.1136C15.8009 20.832 15.6918 21.5534 15.5498 22.2681C15.4863 22.5856 15.5573 22.8166 15.7942 23.0342C16.052 23.2705 16.2776 23.5403 16.519 23.7937C16.7252 24.012 16.9344 24.2281 17.1922 24.4979C17.2483 24.2155 17.2894 24.0098 17.3305 23.8041C17.4896 23.0149 17.651 22.2264 17.8057 21.4364C17.8363 21.2792 17.9208 21.1018 17.7467 20.9729C17.1885 20.557 16.6258 20.1464 16.0325 19.7104ZM18.5081 46.7258C18.3841 46.7124 18.337 46.6967 18.2944 46.7042C17.3768 46.8704 16.4607 47.0448 15.5416 47.2035C15.3212 47.2422 15.245 47.3809 15.1785 47.5612C14.8938 48.334 14.6024 49.1046 14.3162 49.8767C14.2818 49.9691 14.2691 50.0697 14.2302 50.2344C15.109 49.8655 15.9242 49.5257 16.7364 49.1784C16.8164 49.1441 16.8919 49.0741 16.9412 49.0025C17.4538 48.2647 17.9611 47.5232 18.5081 46.7258ZM20.4696 84.1821C20.4561 84.0875 20.4599 84.0539 20.4472 84.0286C19.9764 83.1052 19.5109 82.1789 19.0244 81.2637C18.9549 81.1326 18.7958 81.0223 18.6531 80.9612C17.9925 80.6817 17.323 80.4216 16.6557 80.157C16.5339 80.1086 16.4077 80.0713 16.2829 80.0288C16.2687 80.0743 16.2575 80.0922 16.2619 80.1004C16.9815 81.3032 17.7004 82.5061 18.4282 83.7044C18.4767 83.7842 18.5851 83.8602 18.6762 83.8773C19.2598 83.9861 19.8464 84.0785 20.4696 84.1821ZM78.4536 25.776C78.4693 25.7447 78.4857 25.7142 78.5021 25.6821C77.3761 24.0754 76.25 22.4679 75.1239 20.8603C75.0918 20.8671 75.0597 20.8745 75.0275 20.882C74.9498 22.0274 74.8714 23.1736 74.7907 24.3653C76.0176 24.8378 77.2356 25.3073 78.4536 25.776ZM71.4984 20.3059C72.4773 19.9601 73.359 19.6486 74.2332 19.3393C74.1062 18.559 72.8651 15.3008 72.5968 15.0459C72.2352 16.7764 71.8765 18.4942 71.4984 20.3059ZM57.801 14.6904C57.8824 14.6561 57.931 14.6487 57.9594 14.6218C59.2304 13.4145 60.4992 12.205 61.7673 10.9955C61.7747 10.988 61.771 10.9656 61.7673 10.9515C61.765 10.941 61.7531 10.9321 61.7456 10.9224C60.6509 11.0364 57.6463 11.6379 57.3654 11.8055C57.5088 12.755 57.6538 13.7119 57.801 14.6904ZM50.6583 13.6217L50.6762 13.5301C48.6213 12.4412 46.5657 11.3524 44.4921 10.2532C44.0827 10.8881 43.7008 11.4814 43.2689 12.1513C43.5843 12.1111 43.7942 12.0887 44.0027 12.0567C44.7881 11.9382 45.5726 11.8204 46.3565 11.6923C46.6023 11.652 46.819 11.6684 46.9647 11.8905C47.1119 12.1156 47.1052 12.3555 46.964 12.5799C46.8175 12.8116 46.6494 13.0292 46.4985 13.2588C46.4461 13.3385 46.4178 13.4332 46.3669 13.5494C47.7725 13.577 49.1309 13.6046 50.4886 13.6314C50.5454 13.6322 50.6015 13.6247 50.6583 13.6217ZM13.5802 22.3836C13.48 22.2234 13.4569 22.169 13.4187 22.1288C12.2665 20.9058 11.1128 19.6851 9.95685 18.4651C9.88512 18.3891 9.80143 18.2915 9.70877 18.2721C9.25072 18.1782 8.78744 18.1081 8.20984 18.0098C8.39888 18.2907 8.52367 18.4763 8.64921 18.6619C9.4181 19.7999 10.1862 20.9386 10.9566 22.0766C11.0568 22.2234 11.1307 22.3911 11.3661 22.3874C12.0678 22.3762 12.7694 22.3836 13.5802 22.3836ZM42.0196 63.5484C42.0278 63.5178 42.0353 63.488 42.0435 63.4582C39.9229 62.6086 37.8022 61.759 35.6816 60.9094C35.6622 60.9348 35.6427 60.9601 35.6233 60.9847C36.3145 62.1957 37.0057 63.406 37.717 64.6521C38.1736 64.3532 38.607 64.0969 39.0098 63.7988C39.3602 63.5387 39.7234 63.4328 40.1605 63.4694C40.7784 63.52 41.3994 63.5238 42.0196 63.5484ZM36.3691 76.1178C36.7322 77.6485 37.0819 79.1189 37.4316 80.59C37.4652 80.593 37.4996 80.5952 37.5332 80.5975C38.1669 78.5629 38.8013 76.5284 39.4349 74.4939C39.4095 74.4715 39.3834 74.4491 39.3572 74.4268C38.3716 74.9842 37.386 75.5424 36.3691 76.1178ZM33.9637 13.3326C34.3545 12.1364 34.767 11.0171 35.1219 9.78293C33.2471 10.2718 31.4665 10.7361 29.6866 11.2004C29.6791 11.2287 29.6717 11.257 29.6649 11.2854C31.0772 11.9576 32.4887 12.6298 33.9637 13.3326ZM34.0467 39.9134C32.7786 38.5459 31.5607 37.2328 30.3427 35.9189C30.3165 35.9353 30.2904 35.9509 30.2642 35.9673C30.4122 37.6755 30.5609 39.3843 30.714 41.1565C31.8267 40.7414 32.8945 40.3435 34.0467 39.9134ZM29.7038 9.94241C29.7187 9.97222 29.7344 10.002 29.7501 10.0318C31.4052 9.5996 33.0603 9.16735 34.7513 8.72616C34.4225 7.60605 34.1094 6.53736 33.7717 5.38818C32.3759 6.95097 31.0398 8.44669 29.7038 9.94241ZM23.7917 23.7802C23.7783 23.7243 23.7798 23.661 23.7566 23.6491C22.1777 22.8964 20.5974 22.1474 18.9796 21.3805C18.7412 22.599 18.4917 23.7467 18.2869 24.9592C20.1707 24.5553 21.9745 24.1693 23.7917 23.7802ZM42.7788 69.5916C43.4259 67.9342 44.0371 66.3699 44.6655 64.7609C43.2831 64.7184 41.9733 64.6185 40.5969 64.6409C41.3314 66.3073 42.0345 67.9021 42.7788 69.5916ZM10.7459 15.8441C10.6622 16.3024 10.6077 16.6765 10.5225 17.0432C10.4635 17.2966 10.5382 17.468 10.7145 17.652C11.8645 18.8556 13.0033 20.0704 14.1465 21.2799C14.2482 21.388 14.3595 21.4871 14.5217 21.6444C14.6853 20.7158 14.837 19.8535 14.9954 18.9547C13.6018 17.9345 12.2127 16.918 10.7459 15.8441ZM26.682 15.8142C28.7376 15.1957 30.6849 14.6099 32.7428 13.9914C31.1841 13.2506 29.7299 12.5597 28.234 11.848C27.7177 13.1664 27.2215 14.4348 26.682 15.8142ZM39.4349 10.0766C40.3981 10.6109 41.3127 11.1177 42.2609 11.6438C42.5157 11.2548 42.7436 10.8792 43.0007 10.5237C43.5626 9.7479 43.9788 8.91397 44.1357 7.9593C44.1813 7.68207 44.274 7.41228 44.3621 7.07319C43.9392 7.21703 43.6022 7.36012 43.2503 7.44657C42.0868 7.73125 41.1251 8.3282 40.3323 9.22101C40.0723 9.51315 39.7659 9.76355 39.4349 10.0766ZM11.9945 23.503C12.2269 24.0411 14.7989 27.8031 15.0701 28.0066C15.6462 27.2464 16.2223 26.4863 16.8059 25.7157C16.1073 24.9756 15.4534 24.2721 14.7824 23.585C14.6928 23.4933 14.5142 23.4494 14.3767 23.4479C13.7812 23.4426 13.1849 23.4605 12.5893 23.4732C12.3958 23.4769 12.203 23.4918 11.9945 23.503ZM13.9261 31.3639C13.9493 31.3908 13.9724 31.4176 13.9956 31.4444C16.188 30.4204 18.3803 29.3957 20.6512 28.3352C19.6506 27.695 18.7091 27.0921 17.7444 26.4751C16.3733 28.0662 15.1904 29.746 13.9261 31.3639ZM10.0488 43.2797C9.92995 45.1786 9.81861 46.9613 9.70205 48.8296C11.1375 48.0844 12.4922 47.3801 13.9022 46.6475C12.611 45.5192 11.3751 44.4386 10.0488 43.2797ZM21.3065 83.2424C21.3685 83.22 21.3879 83.2185 21.3924 83.2103C22.1277 81.7541 22.8644 80.2994 23.5907 78.8379C23.6378 78.744 23.6408 78.5913 23.5975 78.4959C23.2418 77.7223 22.8712 76.9562 22.4647 76.1051C21.6039 77.6627 20.7812 79.1517 19.9592 80.6385C20.4188 81.5268 20.8641 82.3876 21.3065 83.2424ZM45.6339 22.2175C45.4972 22.1407 45.462 22.1072 45.4224 22.1004C43.0448 21.6913 40.6656 21.2874 38.2887 20.8745C38.0585 20.835 37.8792 20.8902 37.6894 21.0131C36.5999 21.7166 35.5038 22.4112 34.4113 23.111C34.3276 23.1647 34.2522 23.2317 34.173 23.2928C34.1819 23.3152 34.1916 23.3376 34.2006 23.3607C37.9793 22.9828 41.7573 22.605 45.6339 22.2175ZM31.1982 23.471C31.119 23.3577 31.0914 23.3078 31.054 23.2675C29.5013 21.5899 27.9471 19.9131 26.3921 18.2378C26.3854 18.2304 26.3637 18.2326 26.3502 18.2356C26.336 18.2386 26.3233 18.2475 26.3099 18.2535C26.221 19.4965 26.2501 22.9508 26.3577 23.3122C27.9411 23.4166 29.5297 23.5008 31.1982 23.471ZM47.3137 78.5935C48.0243 79.4863 48.6975 80.3456 49.385 81.1937C50.0769 82.047 50.7345 82.9286 51.4869 83.7909C51.658 83.4346 51.7851 83.141 51.939 82.8623C52.0586 82.6462 52.0698 82.4509 51.9861 82.2154C51.4593 80.7391 50.9467 79.2575 50.4266 77.7789C50.378 77.6403 50.313 77.5077 50.2413 77.3377C49.2572 77.7596 48.3097 78.1657 47.3137 78.5935ZM55.451 61.92C55.4114 61.9468 55.3718 61.9729 55.3314 61.999C55.2111 62.9648 55.0908 63.9314 54.9705 64.8973C54.8076 66.1962 54.6425 67.4952 54.4855 68.7957C54.4691 68.9306 54.4026 69.0856 54.5408 69.2436C55.8836 67.8581 57.2069 66.4921 58.6155 65.0374C57.5439 63.9813 56.4978 62.9507 55.451 61.92ZM8.89355 43.3632C8.85544 43.3468 8.81808 43.3304 8.77997 43.314C7.73086 44.019 6.68026 44.7211 5.63639 45.4328C5.55943 45.4849 5.48769 45.5967 5.47798 45.6877C5.40475 46.3964 5.34721 47.1059 5.28146 47.8452C6.37988 48.2327 7.45215 48.6113 8.5685 49.0055C8.68208 47.088 8.8405 45.2286 8.89355 43.3632ZM30.9457 34.7727C30.9292 34.807 30.9121 34.842 30.8956 34.8763C32.2025 36.2878 33.5102 37.6986 34.8328 39.1265C35.4089 38.0906 36.7838 34.9694 36.8069 34.649C34.8522 34.69 32.8989 34.731 30.9457 34.7727ZM25.1457 17.7325C24.6802 17.8853 20.3194 20.408 20.0833 20.6673C21.7548 21.4536 23.4189 22.2361 25.1457 23.0484V17.7325ZM46.3348 43.9952C48.4397 44.5139 50.4475 45.0087 52.5585 45.5297C51.4705 43.7016 50.4378 41.9666 49.3723 40.1765C48.3553 41.4546 47.3727 42.6903 46.3348 43.9952ZM55.0392 70.3361C55.0542 70.3719 55.0684 70.4076 55.0826 70.4434C57.5492 70.2213 60.0023 69.8994 62.5459 69.5379C61.434 68.2874 60.3939 67.1159 59.3238 65.9115C57.8765 67.4065 56.4582 68.8709 55.0392 70.3361ZM36.4864 20.4579C33.5856 19.6821 30.7813 18.9309 27.9777 18.1804L27.9403 18.2512C29.4169 19.852 30.8949 21.4536 32.3916 23.076C33.744 22.2107 35.0764 21.3589 36.4864 20.4579ZM14.8205 70.6297C16.1895 73.3044 17.518 75.8905 18.8922 78.4593C19.0035 77.5352 19.079 76.6268 19.1388 75.7168C19.1903 74.9283 19.3226 74.1421 19.218 73.3477C19.1305 72.6866 19.0528 72.0241 18.9684 71.3407C17.5883 71.1037 16.256 70.8757 14.8205 70.6297ZM58.4391 15.704C60.1869 16.3866 61.842 17.07 63.5815 17.7243C63.4523 15.5296 63.3282 13.4242 63.1967 11.2064C61.5767 12.7379 60.0404 14.1896 58.4391 15.704ZM45.3238 9.38496C46.1697 9.94838 51.5273 12.7446 51.9076 12.8161C50.8899 10.6735 49.8819 8.55028 48.8574 6.39129C47.6544 7.41079 46.5037 8.38558 45.3238 9.38496ZM20.7565 40.8055C20.6392 42.223 20.5264 43.5808 20.4105 44.9722C20.5286 44.9491 20.6033 44.9454 20.6706 44.92C23.182 43.9736 25.6934 43.0264 28.2041 42.0777C28.2131 42.0739 28.2183 42.0523 28.2198 42.0389C28.2213 42.024 28.2161 42.0084 28.2116 41.9763C25.7487 41.5895 23.2806 41.202 20.7565 40.8055ZM23.1551 27.862C23.2687 27.8851 23.3382 27.9097 23.4092 27.9127C24.7377 27.9559 26.0663 27.9954 27.3949 28.0416C27.5772 28.0483 27.7147 27.9887 27.844 27.8642C28.8804 26.8723 29.9205 25.8848 30.9569 24.8929C31.0129 24.8392 31.0413 24.758 31.1019 24.6567C29.5536 24.6105 28.0569 24.5687 26.5617 24.518C26.3532 24.5106 26.2217 24.6052 26.0895 24.7439C25.1741 25.7052 24.2543 26.6621 23.3367 27.622C23.2784 27.6839 23.2328 27.7584 23.1551 27.862ZM41.6579 70.0991C41.6848 70.0678 41.711 70.0365 41.7371 70.006C40.9854 68.2993 40.233 66.5934 39.4775 64.8786C37.726 65.7811 36.4841 67.2187 34.9897 68.505C37.2807 69.0528 39.4693 69.5759 41.6579 70.0991ZM70.3036 20.3931C70.737 18.7885 71.5709 14.6338 71.5402 14.2529C70.7699 14.6681 65.6805 18.2043 65.4645 18.4837C67.0726 19.1179 68.6746 19.7499 70.3036 20.3931ZM25.8914 51.3665C27.0347 53.4226 28.1526 55.4326 29.2704 57.4418C29.304 57.4328 29.3377 57.4231 29.3713 57.4142C29.721 54.8662 30.0707 52.3182 30.4301 49.7023C28.8774 50.2717 27.4076 50.8105 25.8914 51.3665ZM52.0182 46.6356C52.0107 46.6043 52.0033 46.573 51.9958 46.5417C49.9566 46.0387 47.9167 45.5364 45.8252 45.0207C45.5846 46.7698 45.353 48.454 45.1086 50.23C47.4624 49.0055 49.7399 47.8206 52.0182 46.6356ZM55.8739 76.1081C56.6652 75.5454 61.5894 71.0948 61.7441 70.8108C59.3186 71.0948 56.8969 71.3787 54.4288 71.6679C54.9115 73.1524 55.3875 74.6131 55.8739 76.1081ZM14.8086 45.9515C16.1536 44.262 17.468 42.6113 18.7823 40.9605C18.7659 40.9352 18.7502 40.9091 18.7338 40.883C16.123 41.395 13.5114 41.907 10.7908 42.4398C12.1686 43.6442 13.4703 44.7814 14.8086 45.9515ZM54.5954 55.3715L54.4811 55.3238C52.1901 57.801 49.8991 60.2774 47.6081 62.7539C47.6268 62.7793 47.6439 62.8046 47.6626 62.8292C49.9028 62.002 52.143 61.1747 54.3757 60.3505C54.4504 58.6528 54.5229 57.0125 54.5954 55.3715ZM9.12369 41.4218C9.40764 40.7153 10.8759 35.044 10.8565 34.7071C10.6368 34.88 10.4321 35.0343 10.2341 35.1975C9.42258 35.8675 8.63052 36.5628 7.79811 37.2059C6.65187 38.0921 5.47574 38.9394 4.31305 39.8054C4.21218 39.8807 4.11952 39.9671 3.97306 40.0916C5.74399 40.5491 7.4372 40.9866 9.12369 41.4218ZM41.64 71.2967C41.0721 71.0605 35.2161 69.6915 34.8619 69.7123C35.2759 71.4562 35.6682 73.2008 36.1187 74.9656C36.2996 74.8695 36.4214 74.8091 36.5402 74.742C37.4578 74.2226 38.3664 73.6875 39.2944 73.1867C39.8653 72.8774 40.3802 72.5085 40.8375 72.0517C41.093 71.7968 41.3628 71.5561 41.64 71.2967ZM44.2979 83.4138C44.3442 83.4749 44.3644 83.5203 44.3987 83.5442C45.2065 84.1188 46.018 84.6874 46.8227 85.2657C46.9834 85.3805 47.1299 85.3477 47.298 85.3045C48.2574 85.0563 49.2198 84.8163 50.18 84.5712C50.2906 84.5436 50.399 84.5018 50.5559 84.4512C49.1974 82.749 47.8711 81.0878 46.5052 79.3768C45.7497 80.7592 45.0219 82.0895 44.2979 83.4138ZM53.2078 71.5486H45.7871C45.7774 71.574 45.7684 71.5993 45.7594 71.6246C48.7371 73.2105 51.7156 74.7957 54.6933 76.3816C54.7179 76.3637 54.7418 76.3458 54.7665 76.3279C54.2502 74.7443 53.7331 73.1606 53.2078 71.5486ZM49.9215 20.9207C49.9574 20.9155 49.9925 20.9095 50.0283 20.9043C50.8062 18.8802 51.5848 16.8561 52.3672 14.8223C51.7896 14.721 46.7734 14.6606 46.4641 14.7545C47.6193 16.8151 48.77 18.8675 49.9215 20.9207ZM69.7536 62.9678C69.7544 62.9343 69.7551 62.9007 69.7559 62.8672C65.3801 62.388 61.0081 61.8797 56.6129 61.4602C56.6809 61.604 56.7631 61.7068 56.855 61.7992C57.6501 62.6026 58.4556 63.3963 59.2379 64.2116C59.4554 64.4367 59.6631 64.4874 59.9665 64.4404C62.3225 64.076 64.6822 63.7302 67.0397 63.3777C67.9446 63.2421 68.8487 63.1042 69.7536 62.9678ZM18.9251 62.1033L18.8294 62.0623C17.3043 64.4926 15.7792 66.9229 14.228 69.3941C15.8338 69.6684 17.3626 69.9299 18.9251 70.1967V62.1033ZM27.3919 16.7682C27.3926 16.8002 27.3934 16.8323 27.3949 16.8643C30.4974 17.6968 33.5998 18.5299 36.7031 19.3624C36.7232 19.3348 36.7427 19.3072 36.7628 19.2797C36.0014 17.7348 35.24 16.1899 34.4435 14.6472C32.0553 15.3656 29.724 16.0669 27.3919 16.7682ZM10.7414 39.8583C11.3736 39.3254 19.2299 30.4763 19.3577 30.1693C17.1355 31.2082 14.9237 32.247 12.7059 33.2725C12.4757 33.3783 12.407 33.549 12.3517 33.7607C12.073 34.8219 11.7905 35.8816 11.5096 36.9421C11.2615 37.8826 11.0142 38.8239 10.7414 39.8583ZM50.2503 6.48892C50.2249 6.51202 50.1995 6.53438 50.1741 6.55748C51.2486 8.8223 52.3231 11.0871 53.414 13.387C54.3511 12.7133 55.2395 12.0746 56.116 11.4441C55.9531 10.4745 55.7932 9.55861 55.649 8.64046C55.6086 8.38484 55.4951 8.24548 55.2417 8.1635C54.2091 7.83112 53.1831 7.47861 52.155 7.13282C51.5198 6.91893 50.8847 6.70355 50.2503 6.48892ZM51.9091 70.4069C51.9181 70.3801 51.927 70.354 51.9368 70.3272C49.8759 68.6153 47.8151 66.902 45.7438 65.1805C45.2468 66.1605 43.7703 70.0574 43.7666 70.4069H51.9091ZM62.5123 48.3735C61.8196 48.1634 54.7867 47.1081 54.4512 47.1588C54.8338 49.0152 55.2156 50.8701 55.6101 52.7862C57.928 51.3046 60.1861 49.8603 62.5123 48.3735ZM29.5685 41.0582C29.4094 39.0773 29.254 37.1769 29.0612 35.2087C26.6372 36.7141 24.2901 38.1711 21.9431 39.6288C21.8923 39.6608 21.8467 39.701 21.8011 39.7405C21.7922 39.748 21.7914 39.7681 21.7922 39.7823C21.7929 39.795 21.8011 39.8069 21.8116 39.8344C24.3679 40.2376 26.9316 40.6423 29.5685 41.0582ZM40.558 74.941C40.5251 74.944 40.4922 74.9477 40.4601 74.9507C39.6725 77.4764 38.8857 80.002 38.1011 82.5202C38.1766 82.5731 38.2095 82.6067 38.2491 82.6231C39.1801 83.0091 40.1112 83.3959 41.0444 83.7752C41.1379 83.814 41.2604 83.843 41.3516 83.8162C41.8746 83.6619 42.382 83.4659 42.8744 83.1977C42.5538 81.7683 42.2041 80.3776 41.9381 78.9721C41.6923 77.6738 41.2843 76.4397 40.7149 75.2533C40.6641 75.1482 40.6103 75.0446 40.558 74.941ZM53.3191 47.2162C50.872 48.4861 48.5092 49.7128 46.1465 50.9394C46.1532 50.9685 46.1592 50.9968 46.1659 51.0251C48.9202 51.6556 51.6745 52.2861 54.499 52.933C54.103 51.0125 53.7196 49.1575 53.3191 47.2162ZM64.6912 17.5552C66.9 16.0393 69.0296 14.5771 71.2361 13.0628C68.8831 12.2825 66.6287 11.535 64.3019 10.7629C64.4319 13.0352 64.5582 15.2359 64.6912 17.5552ZM58.3666 39.5684C58.3532 39.5334 58.339 39.4983 58.3248 39.4633C55.7118 39.5483 53.0987 39.6332 50.4012 39.7212C51.5512 41.6521 52.6526 43.5026 53.7861 45.4045C55.3426 43.4213 56.855 41.4949 58.3666 39.5684ZM60.4387 65.492C61.5894 66.7857 62.6692 68.0005 63.7579 69.2242C66.4733 67.4348 69.1424 65.6746 71.8115 63.915L71.7666 63.8002C68.0268 64.3592 64.2869 64.9174 60.4387 65.492ZM79.8853 27.3045C79.8658 27.5125 79.8442 27.6757 79.8367 27.8389C79.8165 28.3114 79.8217 28.7854 79.7792 29.2556C79.7523 29.5574 79.8449 29.7646 80.0556 29.98C82.6134 32.604 85.1614 35.2362 87.714 37.8655C87.776 37.9303 87.8529 37.981 87.9732 38.0794C87.9366 37.9549 87.9284 37.9102 87.9112 37.8692C86.8442 35.3749 85.7741 32.8813 84.7123 30.3839C84.6279 30.1864 84.4956 30.0649 84.3208 29.9599C82.9728 29.1475 81.6285 28.3315 80.282 27.5177C80.1692 27.4491 80.0497 27.3925 79.8853 27.3045ZM45.2655 13.1105C45.2439 13.074 45.2229 13.0374 45.2013 13.0009C42.0241 13.4891 38.8469 13.9772 35.6158 14.4728C36.4438 16.1287 37.2388 17.7206 38.0458 19.3348C38.1549 19.2573 38.2304 19.2111 38.2976 19.1545C40.4078 17.3934 42.5202 15.6354 44.6214 13.8632C44.8702 13.653 45.0526 13.3631 45.2655 13.1105ZM25.0523 52.1505C23.5325 54.5725 22.0604 56.9171 20.5742 59.2863C21.2019 59.3444 28.3655 58.8585 28.7137 58.7348C27.5047 56.5616 26.2994 54.3937 25.0523 52.1505ZM54.7575 45.9828C57.585 46.4277 60.3274 46.8473 63.1063 47.2676C62.788 46.3807 59.7139 40.2346 59.4636 39.9828C57.9123 41.9607 56.3626 43.9356 54.7575 45.9828ZM64.6247 78.5376C64.1696 75.9926 63.7347 73.5556 63.2841 71.0374C60.9887 73.0861 58.7634 75.0729 56.4545 77.1335C59.22 77.609 61.8756 78.0651 64.6247 78.5376ZM39.2653 19.8006L39.2698 19.9131C42.4858 20.4654 45.7019 21.0183 49.0188 21.5877C47.7261 19.2841 46.485 17.0722 45.2237 14.8238C43.2002 16.514 41.2327 18.1573 39.2653 19.8006ZM46.5851 64.4196C48.8231 66.2842 50.9811 68.0847 53.1697 69.8919C53.3864 69.1348 54.224 61.9639 54.1358 61.6331C51.6446 62.5527 49.1556 63.4708 46.5851 64.4196ZM30.3853 58.2928C33.5371 56.5512 36.591 54.8632 39.7204 53.1342C39.556 53.0806 39.4768 53.044 39.3938 53.0291C37.6027 52.7154 35.8124 52.3994 34.0205 52.0938C33.4907 52.0037 33.026 51.8226 32.68 51.3836C32.473 51.1205 32.2302 50.8858 32.003 50.6384C31.8633 50.4863 31.7228 50.3358 31.5091 50.1063C31.1288 52.8741 30.7649 55.5265 30.3853 58.2928ZM55.4278 22.6184L55.4286 22.6907C61.768 23.7795 68.1082 24.8683 74.4477 25.9571C74.4253 25.7917 74.367 25.7082 74.2975 25.6367C73.1079 24.4085 71.9131 23.1848 70.7288 21.9507C70.5584 21.7725 70.382 21.7517 70.1549 21.7651C67.225 21.9343 64.2944 22.0945 61.363 22.2569C59.5465 22.3583 57.7308 22.4582 55.9142 22.561C55.7514 22.57 55.59 22.599 55.4278 22.6184ZM20.081 60.4921V69.2436C20.1072 69.2555 20.1333 69.2682 20.1595 69.2808C22.8644 66.2089 25.5686 63.1377 28.2736 60.0665C28.2557 60.0352 28.2377 60.0047 28.2198 59.9741C25.5111 60.1463 22.8024 60.3192 20.081 60.4921ZM36.9556 58.266C36.9698 58.301 36.984 58.3361 36.9982 58.3718C38.7549 57.8673 40.5124 57.3643 42.2691 56.8582C44.0446 56.3462 45.82 55.8335 47.5939 55.3163C49.3409 54.8073 51.0969 54.3266 52.8297 53.7453C51.9031 53.4845 50.9863 53.2572 50.0635 53.0597C48.3165 52.6848 46.5657 52.3293 44.8172 51.9612C44.5639 51.9083 44.3449 51.9493 44.117 52.0737C43.4191 52.453 42.7093 52.8085 42.0121 53.1886C41.8148 53.2959 41.6258 53.4353 41.4696 53.5955C40.2315 54.8617 39.0023 56.1368 37.7709 57.4097C37.4974 57.6929 37.2269 57.9806 36.9556 58.266ZM20.9956 30.2595C20.4068 30.7469 11.3669 40.9143 11.2458 41.2154C14.0883 40.658 16.9165 40.1027 19.756 39.546C20.1692 36.448 20.5764 33.3985 20.9956 30.2595ZM65.5863 77.5531C65.96 77.1417 73.5495 64.4181 73.6429 64.0477C70.5135 66.1105 67.4036 68.16 64.2765 70.2206C64.7143 72.6717 65.1477 75.0968 65.5863 77.5531ZM70.9776 61.879C70.9865 61.8529 70.9963 61.8261 71.0052 61.8C65.9383 59.3966 60.8721 56.9939 55.7461 54.5621C55.6624 56.4737 55.5825 58.2973 55.5018 60.1582C60.6905 60.735 65.8337 61.3074 70.9776 61.879ZM42.6854 32.9863C43.3586 33.6548 48.575 37.8022 48.8911 37.9281C48.9972 37.3602 49.4448 24.5851 49.3573 24.205C47.1246 27.1443 44.9136 30.0545 42.6854 32.9863ZM32.8466 25.1336C31.9925 28.0148 31.1624 30.8124 30.318 33.6563C30.5033 33.6563 30.6236 33.6586 30.7439 33.6556C32.5634 33.6168 34.3837 33.5684 36.2039 33.5408C37.111 33.5266 38.0055 33.4327 38.8894 33.239C39.4813 33.1086 40.0671 32.9528 40.7418 32.7874C38.0862 30.2125 35.5008 27.707 32.8466 25.1336ZM22.2943 28.9881C21.8609 32.3141 21.4073 35.5582 20.9829 38.9111C23.6826 37.2343 26.2815 35.6193 28.8946 33.9962C28.3962 32.3506 27.9134 30.7536 27.4292 29.1535C25.6957 29.0976 24.0196 29.0432 22.2943 28.9881ZM53.3199 54.9318C53.2997 54.9027 53.2788 54.8729 53.2586 54.8438L36.106 59.7945C36.1075 59.8221 36.109 59.8489 36.1098 59.8765C39.1824 61.1069 42.255 62.3366 45.3305 63.5685C48.0153 60.6665 50.6672 57.7995 53.3199 54.9318ZM67.9349 20.7664L67.9431 20.6636C63.1474 18.7677 58.3524 16.8725 53.5164 14.9609C52.6451 17.2228 51.7925 19.4362 50.9108 21.7271C56.6353 21.4036 62.2851 21.0854 67.9349 20.7664ZM58.6842 38.335C55.968 33.6384 53.3087 29.0395 50.65 24.4413C50.6172 24.4517 50.585 24.4621 50.5522 24.4726C50.3743 29.1699 50.1957 33.8672 50.0164 38.613C52.9082 38.5206 55.7424 38.4297 58.6842 38.335ZM41.8006 32.259C42.8453 31.0591 48.6086 23.3935 48.7297 23.0335C43.8974 23.5157 39.0777 23.9956 34.2589 24.4771C34.1692 24.486 34.0803 24.5136 33.9921 24.5344C33.9779 24.5374 33.963 24.5493 33.9555 24.5605C33.9488 24.571 33.9518 24.5881 33.9465 24.6455C36.5432 27.1622 39.1592 29.6983 41.8006 32.259ZM56.3768 53.6223C62.0774 56.3239 67.7077 59.0023 73.344 61.6681C73.3687 61.6375 73.3926 61.6062 73.4165 61.5749C70.2804 57.3061 67.1443 53.0373 63.9962 48.7514C61.4519 50.3775 58.9577 51.9724 56.3768 53.6223ZM78.9991 46.7228C74.3655 47.2907 69.8007 47.8548 65.1559 48.4406C68.4049 52.8622 71.5955 57.2055 74.846 61.6293C76.244 56.6123 77.6115 51.7033 78.9991 46.7228ZM64.4371 47.3458C64.603 47.3458 64.7397 47.36 64.8735 47.3436C65.9659 47.2117 67.0584 47.0731 68.1501 46.9374C70.2446 46.6781 72.3383 46.4202 74.432 46.1601C76.04 45.9597 77.6481 45.7592 79.2561 45.555C79.3906 45.5379 79.5326 45.5185 79.6529 45.4626C80.0272 45.2897 80.3956 45.1041 80.7603 44.9126C82.9653 43.7537 85.1682 42.5919 87.371 41.4293C87.4547 41.3853 87.5271 41.3205 87.6729 41.2176C78.606 40.6363 69.6281 40.061 60.559 39.479C61.8823 42.1634 63.1608 44.7576 64.4371 47.3458ZM59.8095 38.0548C64.7988 34.4254 69.7394 30.8318 74.6793 27.2375C74.6883 27.23 74.692 27.2106 74.6928 27.1965C74.6943 27.1816 74.6883 27.1667 74.6831 27.1309C66.8805 25.7902 59.0713 24.4487 51.1559 23.0886C54.0664 28.1213 56.9193 33.0564 59.8095 38.0548ZM76.1671 27.5631C71.2032 31.1627 66.2723 34.7384 61.3167 38.3313C61.7523 38.4773 87.8664 40.1422 88.2774 40.0506C84.2438 35.8913 80.2275 31.75 76.1671 27.5631ZM36.8174 65.3347C36.3339 64.4844 35.8677 63.6624 35.3999 62.8411C34.9695 62.0847 34.5286 61.3342 34.1109 60.5711C33.9854 60.3415 33.8345 60.2573 33.5744 60.2372C32.4611 60.1493 31.3499 60.0419 30.2388 59.9242C29.9967 59.8981 29.8435 59.9659 29.6866 60.1455C26.5826 63.6818 23.4742 67.2157 20.359 70.743C20.1707 70.9562 20.0907 71.1581 20.1296 71.4406C20.2103 72.0301 20.2745 72.6225 20.3209 73.215C20.3388 73.455 20.4509 73.5616 20.6624 73.6316C21.1981 73.8112 21.7257 74.0176 22.2652 74.1876C22.7142 74.3292 23.0131 74.5736 23.2097 75.0282C23.6767 76.1051 24.193 77.1619 24.7138 78.2156C24.8894 78.5696 24.8648 78.8767 24.6936 79.2128C23.862 80.8442 23.0378 82.48 22.2114 84.1143C22.0462 84.44 21.8878 84.7701 21.7189 85.0943C21.5844 85.3522 21.3677 85.4684 21.0748 85.4267C20.2731 85.3127 19.4713 85.1957 18.6688 85.0846C18.1188 85.0079 17.7288 84.7448 17.4343 84.2507C16.6131 82.875 15.7493 81.5238 14.905 80.1615C14.7525 79.9148 14.6218 79.6547 14.4649 79.4118C14.2325 79.0526 14.2302 78.671 14.2893 78.2663C14.4566 77.1194 14.618 75.9717 14.7608 74.821C14.7839 74.6377 14.7301 74.4283 14.6584 74.2524C14.1428 72.9795 13.6325 71.7044 13.078 70.4486C12.8292 69.8845 12.8822 69.4254 13.2088 68.9067C16.7932 63.2249 20.3612 57.5327 23.9337 51.8427C24.1362 51.5192 24.3185 51.1809 24.5457 50.8754C24.6653 50.7144 24.8408 50.5541 25.0254 50.4856C26.9443 49.7679 28.8714 49.0733 30.7918 48.3616C31.1265 48.2379 31.3753 48.302 31.61 48.5636C32.2324 49.2567 32.8698 49.9371 33.493 50.6302C33.6432 50.7971 33.8061 50.894 34.0332 50.9342C36.3519 51.3449 38.669 51.7659 40.9862 52.1855C41.2014 52.2243 41.3994 52.2287 41.6064 52.1184C42.2677 51.7659 42.9349 51.4261 43.6074 51.0952C43.8077 50.9968 43.8951 50.8672 43.9243 50.6443C44.191 48.6329 44.4765 46.6237 44.7402 44.6123C44.7918 44.2165 44.945 43.8991 45.196 43.5913C46.3453 42.1835 47.4751 40.7601 48.6886 39.2457C48.575 39.1794 48.4607 39.1294 48.3673 39.0549C46.2691 37.3721 44.1686 35.6901 42.0801 33.9939C41.8253 33.7875 41.6004 33.7495 41.2895 33.827C40.3854 34.0543 39.4745 34.2533 38.5629 34.4515C38.3044 34.5074 38.1392 34.6207 38.0286 34.8755C37.3666 36.4011 36.6866 37.9184 36.0134 39.4387C35.9514 39.5781 35.8923 39.7197 35.8221 39.8546C35.5703 40.339 35.2407 40.6788 34.6796 40.8853C29.975 42.6165 25.2862 44.3917 20.5884 46.1437C20.2723 46.2622 20.0407 46.4329 19.8546 46.7176C19.2112 47.7013 18.544 48.6694 17.8902 49.6464C17.7235 49.8961 17.5135 50.075 17.2326 50.1912C16.0034 50.6987 14.7787 51.2174 13.5533 51.7339C13.3052 51.8382 13.0563 51.9269 12.8322 51.6959C12.6132 51.4716 12.6117 51.2137 12.7186 50.9327C13.0339 50.1055 13.3418 49.2753 13.6511 48.4466C13.699 48.3199 13.7416 48.1917 13.8088 47.9994C13.6795 48.0427 13.5988 48.0583 13.5286 48.0948C12.1873 48.7946 10.849 49.5004 9.50328 50.192C9.3516 50.2695 9.15358 50.3052 8.98396 50.2888C8.72841 50.2635 8.47136 50.1979 8.22926 50.1115C7.04939 49.6882 5.87475 49.2514 4.69787 48.8222C4.19125 48.6366 4.10308 48.5189 4.14493 47.9741C4.2047 47.2139 4.2727 46.4538 4.35041 45.6951C4.37806 45.4268 4.33173 45.1898 4.21442 44.9469C3.60917 43.6971 3.01512 42.4421 2.41958 41.1878C2.11695 40.5506 2.21335 40.1094 2.76854 39.6668C3.29384 39.2472 3.82586 38.8351 4.36536 38.4334C6.73406 36.6716 9.01012 34.7966 11.2548 32.882C11.4281 32.7344 11.5985 32.5742 11.7367 32.3939C12.5475 31.3416 13.3485 30.2811 14.1525 29.2228C14.1974 29.1639 14.2347 29.0984 14.284 29.0223C14.1974 28.8867 14.1182 28.7585 14.0337 28.6341C9.86046 22.4604 5.68645 16.2875 1.5117 10.1146C1.04992 9.43117 0.591866 8.74554 0.122608 8.06736C-0.02609 7.85198 -0.0425289 7.64555 0.0897301 7.42868C0.29447 7.09406 0.612788 7.0404 0.94381 7.28336C3.12646 8.88192 5.30761 10.482 7.491 12.0798C11.0187 14.6621 14.5471 17.2422 18.0762 19.8237C18.2234 19.9318 18.3736 20.0354 18.5462 20.1576C18.7472 20.0458 18.9475 19.9385 19.144 19.8237C21.1241 18.6693 23.1021 17.5104 25.0874 16.3642C25.2817 16.2525 25.3669 16.0982 25.4394 15.9119C25.934 14.6472 26.4295 13.3832 26.9241 12.1185C27.0855 11.7072 27.2439 11.295 27.4083 10.8852C27.436 10.8166 27.4778 10.7495 27.5279 10.6936C29.5118 8.47203 31.4964 6.25118 33.4855 4.03331C33.5841 3.92302 33.7082 3.8157 33.8427 3.75981C34.1685 3.62566 34.4562 3.78216 34.575 4.16224C34.77 4.78751 34.9463 5.41948 35.1302 6.04847C35.4604 7.17604 35.781 8.3051 36.124 9.42819C36.2502 9.84404 36.2331 10.2413 36.0888 10.6385C35.923 11.0953 35.7474 11.5492 35.6241 12.0515C35.7093 11.9889 35.8019 11.9345 35.8781 11.8622C37.3569 10.4671 38.8364 9.0742 40.3084 7.67312C40.7015 7.29826 41.1266 7.00016 41.6512 6.82652C42.6809 6.48445 43.6993 6.11033 44.7238 5.75037C44.8239 5.7146 44.9248 5.6751 45.0294 5.65349C45.4822 5.56033 45.82 5.89048 45.7198 6.34061C45.6369 6.71249 45.5248 7.07767 45.4292 7.44657C45.403 7.54643 45.3918 7.65002 45.4381 7.81025C45.5487 7.72305 45.6616 7.63884 45.7692 7.54792C46.68 6.77808 47.5961 6.01568 48.4958 5.23317C48.7954 4.97159 49.0854 4.91346 49.4612 5.04238C51.6453 5.78913 53.8317 6.53065 56.0248 7.2528C56.4313 7.3862 56.6204 7.61723 56.6794 8.02712C56.7855 8.76641 56.9215 9.50197 57.0478 10.2383C57.068 10.3545 57.1053 10.4678 57.1419 10.6131C58.0364 10.4499 58.9054 10.2912 59.7744 10.1325C60.9326 9.92006 62.0908 9.71064 63.2483 9.49303C63.5711 9.43266 63.8737 9.44459 64.1928 9.5519C66.8873 10.4559 69.584 11.3562 72.2867 12.2356C72.7358 12.3816 72.9906 12.6216 73.158 13.0687C73.9478 15.1838 74.7698 17.2869 75.588 19.3915C75.6814 19.6299 75.8024 19.8647 75.9489 20.0749C77.273 21.9812 78.6083 23.8794 79.9331 25.7857C80.1206 26.0562 80.3441 26.2627 80.6273 26.4311C82.0978 27.3083 83.5571 28.2033 85.0277 29.0805C85.3438 29.269 85.5582 29.5038 85.7039 29.8481C87.1341 33.2196 88.5785 36.5844 90.0199 39.9507C90.1036 40.1467 90.2074 40.3345 90.2859 40.5335C90.4204 40.8733 90.3509 41.0738 90.0423 41.2743C89.9526 41.3324 89.8548 41.3764 89.7599 41.4263C86.744 43.0152 83.7305 44.6085 80.7072 46.184C80.3807 46.3539 80.2043 46.5656 80.1079 46.9166C78.9124 51.2524 77.7041 55.5846 76.4996 59.9175C76.2418 60.8431 75.9922 61.7702 75.7225 62.6921C75.6462 62.9522 75.5379 63.2108 75.3989 63.4425C72.3017 68.6347 69.1977 73.8231 66.0952 79.0116C66.0399 79.1032 65.9831 79.1942 65.9308 79.2873C65.6596 79.7732 65.5296 79.8358 64.9721 79.7397C61.9272 79.2173 58.8822 78.6971 55.8395 78.1657C55.5885 78.1217 55.3389 78.0226 55.1117 77.9056C52.406 76.515 49.7055 75.1147 47.0028 73.7195C45.7258 73.06 44.4466 72.4057 43.1681 71.7506C43.1008 71.7156 43.0291 71.6902 42.9185 71.6425C42.323 72.1903 41.7192 72.7455 41.105 73.3104C41.3149 73.8045 41.51 74.2673 41.708 74.7279C41.9127 75.2048 42.1294 75.6766 42.3222 76.158C42.4141 76.3875 42.5419 76.5262 42.7907 76.6044C43.8847 76.9465 44.9734 77.3064 46.0591 77.6753C46.2952 77.7551 46.4925 77.7372 46.7159 77.6396C47.7941 77.1663 48.8776 76.7065 49.9589 76.2422C50.0433 76.2057 50.127 76.1677 50.2114 76.1327C50.7464 75.9128 50.9863 76.0186 51.188 76.5783C51.4563 77.3251 51.7156 78.074 51.9794 78.8223C52.3395 79.8433 52.6915 80.868 53.0651 81.8838C53.2392 82.357 53.2399 82.7945 53.0008 83.2491C52.7311 83.7618 52.4964 84.2932 52.2566 84.8216C52.1206 85.1204 51.9151 85.2918 51.5826 85.3723C50.1412 85.7211 48.7035 86.087 47.2696 86.4648C46.9483 86.549 46.6643 86.523 46.3916 86.3575C46.1697 86.2234 45.9582 86.0721 45.7475 85.9193C45.0675 85.4267 44.3845 84.9356 43.7143 84.4303C43.5327 84.2932 43.375 84.2708 43.1696 84.3565C42.7317 84.5376 42.2826 84.6911 41.8462 84.8745C41.4905 85.0235 41.1371 85.0593 40.7754 84.9207C40.348 84.756 39.9214 84.589 39.4984 84.4132C38.9066 84.1672 38.3178 83.9116 37.7283 83.6605C37.6296 83.6187 37.5325 83.574 37.4331 83.5345C37.0498 83.3847 36.863 83.1328 36.7666 82.7028C36.2219 80.277 35.6308 77.8624 35.0569 75.4433C34.5712 73.3954 34.087 71.3474 33.6028 69.2987C33.5752 69.1802 33.5617 69.0573 33.5229 68.9417C33.4033 68.5863 33.5363 68.3306 33.8016 68.0936C34.5204 67.4527 35.2265 66.7991 35.9372 66.1493C36.2189 65.8914 36.4976 65.6313 36.8174 65.3347Z" fill="#1E130F"/>
<path fill-rule="evenodd" clip-rule="evenodd" d="M77.8595 73.9774C77.3095 74.6109 76.7723 75.2309 76.235 75.8502C76.2522 75.8756 76.2687 75.9016 76.2851 75.927C77.5233 75.4925 78.7614 75.058 80.0003 74.6235C79.9981 74.5967 79.9951 74.5699 79.9928 74.5438C79.2889 74.3567 78.5843 74.1697 77.8595 73.9774ZM76.0998 69.3531C76.0632 69.3531 76.0273 69.3531 75.9914 69.3531C75.7389 71.2923 75.4654 73.2284 75.2771 75.184C75.8435 74.5863 76.3636 73.9707 76.8918 73.3633C77.0241 73.212 76.998 73.0578 76.9584 72.8931C76.8582 72.4794 76.7566 72.0658 76.6557 71.6515C76.4704 70.8854 76.2851 70.1192 76.0998 69.3531ZM77.1825 68.704C77.1534 68.7137 77.1242 68.7226 77.0958 68.7323C77.4119 70.0328 77.7355 71.3325 78.0388 72.6367C78.0911 72.8633 78.2286 72.9266 78.4125 72.9743C79.0334 73.1368 79.6536 73.3 80.2753 73.4602C80.3687 73.484 80.4651 73.4937 80.6392 73.5228C79.4556 71.8728 78.319 70.2884 77.1825 68.704ZM73.8551 77.0001C73.9545 76.231 74.0569 75.4292 74.1622 74.628C74.4596 72.3595 74.757 70.0917 75.0559 67.8231C75.1336 67.2336 75.2211 66.6449 75.2943 66.0546C75.3279 65.7789 75.3981 65.5471 75.7112 65.4733C76.0348 65.3973 76.2679 65.5031 76.46 65.7729C77.3267 66.9922 78.2017 68.2062 79.0745 69.4217C80.1243 70.8861 81.1749 72.3498 82.2255 73.8134C82.2965 73.9133 82.372 74.0102 82.4385 74.1123C82.7202 74.5475 82.5969 74.9105 82.1105 75.0796C81.3603 75.3397 80.6078 75.5961 79.8583 75.8592C78.2578 76.4203 76.6587 76.9852 75.0582 77.5479C74.9289 77.5926 74.7989 77.6411 74.6659 77.6746C74.1921 77.7938 73.8439 77.5166 73.8551 77.0001Z" fill="#1E130F"/>
<path fill-rule="evenodd" clip-rule="evenodd" d="M101.824 40.6557C99.6927 38.0824 97.5975 35.5522 95.5023 33.0214C95.4761 33.0355 95.45 33.0497 95.4238 33.0638C96.1897 36.2572 96.9564 39.4506 97.735 42.6947C99.1077 42.0106 100.44 41.3458 101.824 40.6557ZM94.3284 30.1194C94.5219 30.1126 94.6661 30.2662 94.8059 30.4353C95.3117 31.0472 95.8221 31.6561 96.3287 32.2679C98.5301 34.9255 100.731 37.5845 102.932 40.2428C102.991 40.3136 103.051 40.383 103.104 40.4575C103.343 40.7884 103.295 41.0827 102.959 41.3175C102.859 41.3876 102.747 41.439 102.638 41.4934C101.01 42.305 99.3826 43.1158 97.7552 43.9274C97.6999 43.9549 97.6476 43.9855 97.5908 44.0086C97.203 44.1659 96.9273 44.0444 96.8197 43.6375C96.656 43.0182 96.5125 42.3936 96.3631 41.7714C95.518 38.2426 94.6736 34.7131 93.8293 31.1836C93.7941 31.036 93.75 30.8862 93.7396 30.7357C93.7187 30.3966 93.9638 30.1261 94.3284 30.1194Z" fill="#1E130F"/>
<path fill-rule="evenodd" clip-rule="evenodd" d="M85.7615 58.6237C85.884 59.7751 85.955 60.8856 86.1074 62.0027C87.0564 61.6286 94.3717 57.7712 94.6019 57.5208C91.6698 57.8867 88.7578 58.2496 85.7615 58.6237ZM84.5973 58.2265C84.5906 57.8263 84.7295 57.6422 85.1786 57.5767C86.0095 57.4559 86.8442 57.359 87.6781 57.2555C89.7853 56.9916 91.8924 56.7308 93.9996 56.4677C95.2423 56.3127 96.4849 56.1547 97.7283 56.0005C98.0451 55.9617 98.2476 56.0571 98.344 56.2754C98.4516 56.5191 98.3694 56.8396 98.14 57.0125C98.0317 57.0945 97.9061 57.1556 97.7843 57.2189C93.9256 59.2289 90.0662 61.2381 86.2068 63.2473C86.1119 63.2965 86.017 63.3464 85.9199 63.3911C85.4768 63.5953 85.1196 63.4142 85.0561 62.9328C84.9911 62.4342 84.9507 61.9327 84.9021 61.4318C84.8005 60.3706 84.6996 59.3079 84.5973 58.2265Z" fill="#1E130F"/>
<path fill-rule="evenodd" clip-rule="evenodd" d="M114.229 39.0609C112.085 38.3253 110.016 37.6143 107.876 36.8795C108.027 39.5781 108.187 42.2081 108.365 44.9506C110.361 42.9466 112.269 41.0291 114.229 39.0609ZM106.729 36.5807C106.72 36.4279 106.701 36.2759 106.705 36.1238C106.718 35.7199 107.013 35.4829 107.415 35.5515C107.504 35.5664 107.59 35.6022 107.677 35.632C110.193 36.495 112.709 37.3587 115.225 38.2232C115.311 38.2523 115.4 38.2776 115.482 38.3186C115.817 38.487 115.909 38.8656 115.686 39.1652C115.622 39.2509 115.541 39.3232 115.466 39.3992C113.149 41.7281 110.83 44.0563 108.512 46.3845C108.437 46.4605 108.364 46.5402 108.281 46.6066C107.848 46.9471 107.373 46.766 107.314 46.2213C107.261 45.7368 107.249 45.2472 107.219 44.7598C107.055 42.0337 106.892 39.3068 106.728 36.5807C106.729 36.5807 106.729 36.5807 106.729 36.5807Z" fill="#1E130F"/>
<path fill-rule="evenodd" clip-rule="evenodd" d="M89.9138 65.9771C88.2108 67.531 86.5617 69.0356 84.8461 70.6007C87.2148 71.1939 89.4991 71.7655 91.8805 72.3617C91.2125 70.1923 90.5743 68.1212 89.9138 65.9771ZM93.2397 73.0347C93.2315 73.5109 92.9513 73.7412 92.5298 73.6458C91.5614 73.4267 90.5952 73.1949 89.6313 72.9534C87.9411 72.5309 86.2531 72.0986 84.5659 71.6649C84.2849 71.5933 84.0047 71.5099 83.735 71.4041C83.1656 71.182 83.0759 70.7311 83.5272 70.307C84.2401 69.6378 84.9686 68.9857 85.6912 68.3262C87.0116 67.1218 88.3326 65.9175 89.653 64.7124C89.6978 64.6714 89.7419 64.6282 89.789 64.5895C90.1596 64.2832 90.5669 64.3823 90.732 64.8361C90.8523 65.1648 90.939 65.5054 91.0421 65.8407C91.7303 68.0698 92.4192 70.2988 93.1052 72.5286C93.1635 72.7172 93.2068 72.9102 93.2397 73.0347Z" fill="#1E130F"/>
<path fill-rule="evenodd" clip-rule="evenodd" d="M109.966 56.0481C111.161 56.7189 115.88 58.8786 116.236 58.9166C114.755 57.5878 113.293 56.2754 111.829 54.9616C111.201 55.3282 110.613 55.671 109.966 56.0481ZM111.963 53.6857C112.115 53.7833 112.28 53.8623 112.41 53.9793C113.46 54.9139 114.504 55.8551 115.55 56.7949C116.958 58.0611 118.367 59.328 119.775 60.5949C119.878 60.6866 119.985 60.776 120.069 60.8833C120.247 61.1136 120.241 61.3342 120.071 61.5548C119.905 61.7694 119.683 61.8455 119.423 61.7322C118.891 61.4989 118.368 61.247 117.842 61.0011C114.825 59.5888 111.807 58.1758 108.791 56.7636C108.68 56.7114 108.566 56.6652 108.463 56.6011C108.062 56.35 108.05 55.8879 108.454 55.6383C108.96 55.3238 109.483 55.0361 109.998 54.7372C110.487 54.4533 110.974 54.1656 111.467 53.8892C111.61 53.8094 111.772 53.7632 111.963 53.6857Z" fill="#1E130F"/>
<path fill-rule="evenodd" clip-rule="evenodd" d="M70.0234 78.592C69.4077 80.6795 68.8248 82.6544 68.233 84.6591C69.8575 84.9363 71.4222 85.23 73.0878 85.4804C72.0544 83.1574 71.062 80.9261 70.0234 78.592ZM74.5882 86.1392C74.6016 86.5491 74.2923 86.8173 73.9067 86.7659C73.3919 86.6974 72.8808 86.6012 72.3682 86.5133C70.8162 86.2472 69.2657 85.9789 67.7137 85.7114C67.6233 85.6957 67.5321 85.6823 67.444 85.6585C67.0218 85.5437 66.8649 85.2911 66.9874 84.8685C67.1817 84.1948 67.4021 83.5285 67.6009 82.8563C68.0657 81.2928 68.5185 79.7255 68.9877 78.1635C69.1013 77.7849 69.2575 77.419 69.395 77.0471C69.4914 76.7885 69.6401 76.5783 69.9464 76.5754C70.2625 76.5724 70.4396 76.7654 70.5599 77.0411C70.8835 77.7812 71.2167 78.5182 71.5447 79.2568C72.5117 81.4307 73.4778 83.6046 74.4425 85.7792C74.5038 85.9171 74.5561 86.0587 74.5882 86.1392Z" fill="#1E130F"/>
<path fill-rule="evenodd" clip-rule="evenodd" d="M87.6519 75.9501C87.4262 77.2498 87.1326 81.5536 87.2499 81.8726C89.0821 80.9559 90.9203 80.0594 92.804 79.0973C91.0473 78.0234 89.3705 76.9994 87.6519 75.9501ZM85.9714 82.4613C86.144 80.2867 86.3129 78.1583 86.4818 76.0306C86.5094 75.681 86.5535 75.3323 86.561 74.982C86.5699 74.5095 87.0534 74.2621 87.4771 74.5266C89.6657 75.8949 91.8775 77.2267 94.0803 78.5711C94.1453 78.6114 94.2118 78.6516 94.2693 78.7015C94.6019 78.9877 94.5877 79.3745 94.2305 79.6249C94.1192 79.7039 93.9921 79.7613 93.8688 79.8224C91.5584 80.9723 89.2472 82.1215 86.9361 83.2707C86.8673 83.305 86.8008 83.3422 86.7298 83.3698C86.3689 83.5121 86.0439 83.3452 85.9766 82.9607C85.9452 82.7833 85.9714 82.5962 85.9714 82.4613Z" fill="#1E130F"/>
<path fill-rule="evenodd" clip-rule="evenodd" d="M105.476 28.0967C106.344 27.9179 111.754 26.0652 112.012 25.8587C110.074 25.2372 108.148 24.6187 106.182 23.9874C105.942 25.3863 105.71 26.7292 105.476 28.0967ZM104.202 28.8778C104.345 28.0364 104.487 27.1942 104.633 26.3529C104.807 25.346 104.982 24.3399 105.159 23.3338C105.257 22.7779 105.52 22.6124 106.071 22.7883C108.721 23.6334 111.368 24.4853 114.016 25.3363C114.365 25.4489 114.499 25.6009 114.504 25.8587C114.508 26.1487 114.344 26.3521 113.986 26.4728C112.175 27.0802 110.363 27.6861 108.552 28.2913C107.436 28.6639 106.32 29.0358 105.203 29.4061C105.073 29.4486 104.939 29.4956 104.805 29.5045C104.421 29.5306 104.172 29.2631 104.202 28.8778Z" fill="#1E130F"/>
<path fill-rule="evenodd" clip-rule="evenodd" d="M94.9217 49.6144C94.77 48.1999 94.6303 46.9076 94.4876 45.5796C92.5224 45.8822 90.6222 46.1751 88.7227 46.4672C88.716 46.5082 88.7093 46.5484 88.7025 46.5894C90.7387 47.5791 92.7742 48.5695 94.9217 49.6144ZM96.1434 50.4945C96.1897 50.8865 95.7302 51.2696 95.2415 51.0155C94.3874 50.572 93.5072 50.1793 92.6471 49.7485C90.6662 48.7573 88.6898 47.758 86.7134 46.7578C86.3719 46.5849 86.2688 46.38 86.3346 46.0655C86.3854 45.8211 86.5453 45.6549 86.7926 45.6176C88.4089 45.3709 90.0259 45.1302 91.6421 44.885C92.6397 44.7337 93.6395 44.5951 94.6318 44.4192C95.3192 44.297 95.5225 44.5497 95.5845 45.1719C95.7115 46.462 95.8505 47.7505 95.9857 49.0391C96.0366 49.5242 96.0904 50.0094 96.1434 50.4945Z" fill="#1E130F"/>
<path fill-rule="evenodd" clip-rule="evenodd" d="M99.151 16.5439C99.1398 16.5111 99.1286 16.4783 99.1174 16.4455C97.0199 16.4962 94.9217 16.5476 92.7279 16.6005C93.8606 17.7467 94.9165 18.8161 95.9947 19.9072C97.0662 18.7662 98.1086 17.655 99.151 16.5439ZM95.9252 15.4081C97.3457 15.3723 98.7669 15.3365 100.187 15.3015C100.294 15.2993 100.401 15.297 100.508 15.2978C100.781 15.2993 100.979 15.4327 101.088 15.6734C101.196 15.9141 101.092 16.1086 100.921 16.2905C99.7391 17.5462 98.5622 18.8057 97.3838 20.0637C97.1223 20.3424 96.8615 20.6211 96.6007 20.8984C96.1135 21.4163 95.8886 21.4133 95.3954 20.9162C94.1289 19.6366 92.8594 18.36 91.5838 17.0886C91.3911 16.8964 91.1661 16.7354 90.9472 16.5692C90.6879 16.3724 90.6095 16.1824 90.6932 15.9007C90.7671 15.6496 90.9121 15.546 91.2506 15.5206C91.4486 15.5065 91.6481 15.508 91.8469 15.5035C93.2061 15.4714 94.566 15.4386 95.9252 15.4059" fill="#1E130F"/>
<path fill-rule="evenodd" clip-rule="evenodd" d="M86.9951 49.911C87.1102 51.5148 87.2185 53.015 87.3306 54.58C88.9917 53.9018 90.602 53.2766 92.2877 52.5671C90.4847 51.6616 88.7832 50.8083 86.9951 49.911ZM86.0319 52.1378C85.9587 51.1504 85.8803 50.1629 85.8175 49.1747C85.807 49.0152 85.8317 48.8349 85.9004 48.6933C86.0282 48.4332 86.2882 48.3437 86.561 48.4525C86.8008 48.5487 87.028 48.6769 87.2596 48.7931C89.3892 49.8596 91.5173 50.9275 93.6469 51.9925C93.9271 52.1326 94.2141 52.2705 94.2066 52.6394C94.1984 53.0112 93.907 53.1342 93.6141 53.2512C91.533 54.0896 89.4535 54.931 87.3732 55.7709C87.288 55.8052 87.2029 55.8387 87.1162 55.87C86.6312 56.0437 86.2987 55.841 86.2584 55.3297C86.1874 54.4332 86.1291 53.5359 86.0663 52.6394C86.0551 52.4717 86.0469 52.3047 86.0372 52.1371C86.0357 52.1378 86.0334 52.1378 86.0319 52.1378Z" fill="#1E130F"/>
<path fill-rule="evenodd" clip-rule="evenodd" d="M81.4806 63.6281C81.5994 61.4922 81.7122 59.4763 81.8243 57.4604C81.7959 57.4492 81.7675 57.438 81.7391 57.4269C80.7984 58.7855 79.8569 60.1441 78.893 61.5354C79.7411 62.2218 80.5675 62.8896 81.4806 63.6281ZM82.7957 60.0397C82.715 61.531 82.6343 63.0222 82.5536 64.5135C82.5379 64.8034 82.5559 65.1089 82.2181 65.2505C81.899 65.3832 81.6667 65.2237 81.4313 65.0314C80.2723 64.0864 79.1074 63.1482 77.947 62.2047C77.4994 61.841 77.4702 61.6383 77.7998 61.1606C79.159 59.1901 80.5227 57.2219 81.8856 55.253C81.9289 55.1904 81.9775 55.1315 82.0194 55.0681C82.1568 54.8639 82.328 54.7119 82.5917 54.8021C82.8398 54.8878 82.9967 55.0734 83.0318 55.3379C83.0475 55.4579 83.0393 55.5816 83.0333 55.7038C82.9579 57.1489 82.8802 58.5947 82.8032 60.0405C82.8009 60.0405 82.7987 60.0397 82.7957 60.0397Z" fill="#1E130F"/>
<path fill-rule="evenodd" clip-rule="evenodd" d="M95.9379 65.2803C96.2578 66.2305 96.5499 67.0987 96.8555 68.005C98.4397 67.452 99.9715 66.9176 101.504 66.3826C101.501 66.3535 101.499 66.3244 101.497 66.2946C99.6718 65.9622 97.8486 65.6291 95.9379 65.2803ZM95.181 64.0127C95.5352 64.0745 95.9417 64.1438 96.3467 64.2176C98.8267 64.67 101.306 65.1231 103.785 65.5762C103.86 65.5896 103.937 65.5978 104.009 65.6231C104.252 65.7059 104.376 65.8884 104.405 66.1351C104.431 66.3632 104.309 66.5711 104.057 66.6687C103.559 66.861 103.052 67.0332 102.548 67.2083C100.673 67.8604 98.7976 68.5102 96.9228 69.1608C96.8936 69.1713 96.866 69.1847 96.8369 69.1944C96.3355 69.3546 96.0889 69.2413 95.9208 68.7472C95.5367 67.6219 95.1616 66.4943 94.7842 65.3675C94.7065 65.1365 94.6116 64.9084 94.563 64.6707C94.4891 64.304 94.7528 64.0119 95.181 64.0127Z" fill="#1E130F"/>
<path fill-rule="evenodd" clip-rule="evenodd" d="M100.937 78.6874C101.462 79.9163 101.944 81.0424 102.447 82.2191C103.578 81.3152 104.656 80.4522 105.815 79.5243C104.154 79.2396 102.599 78.9721 100.937 78.6874ZM107.677 79.1584C107.686 79.4163 107.536 79.5824 107.35 79.7308C106.812 80.1585 106.277 80.59 105.739 81.0193C104.736 81.8204 103.734 82.6223 102.728 83.4205C102.214 83.8289 101.884 83.7559 101.627 83.1582C100.928 81.5328 100.235 79.9037 99.5493 78.2723C99.3146 77.7126 99.6329 77.3251 100.236 77.4279C102.512 77.8147 104.788 78.206 107.063 78.5995C107.48 78.671 107.666 78.8484 107.677 79.1584Z" fill="#1E130F"/>
<path fill-rule="evenodd" clip-rule="evenodd" d="M62.0236 7.43986C63.2513 6.80789 64.4237 6.20423 65.5968 5.60132L65.5692 5.50444C65.1963 5.52531 64.8242 5.54766 64.4513 5.56481C64.0852 5.58269 63.7183 5.59163 63.3521 5.60878C62.9703 5.62741 62.5892 5.64529 62.2081 5.67436C61.8398 5.70193 61.4609 5.64827 61.0641 5.78689C61.3937 6.35477 61.6978 6.87868 62.0236 7.43986ZM68.1874 4.19131C68.3787 4.26509 68.6051 4.29788 68.7553 4.42159C69.0266 4.64591 68.9354 5.09977 68.588 5.30769C68.2607 5.50295 67.9147 5.66691 67.5747 5.84129C65.809 6.74752 64.0418 7.65375 62.2746 8.55774C61.7083 8.84764 61.5155 8.79398 61.1979 8.24771C60.7144 7.4175 60.237 6.58356 59.7572 5.75112C59.7117 5.67212 59.6623 5.59387 59.6265 5.5104C59.424 5.03493 59.634 4.6869 60.1518 4.65709C61.0828 4.60269 62.0139 4.55723 62.9449 4.51102C64.6852 4.42532 66.4255 4.34185 68.1665 4.25763C68.1733 4.23528 68.18 4.21292 68.1874 4.19131Z" fill="#1E130F"/>
<path fill-rule="evenodd" clip-rule="evenodd" d="M77.2872 80.9664C77.8573 81.6997 78.3908 82.3853 78.9341 83.0836C79.4795 82.3742 80.9194 79.9849 81.0069 79.6383C79.7724 80.0788 78.5575 80.5133 77.2872 80.9664ZM78.9849 84.6352C78.7375 84.6405 78.5986 84.4758 78.4648 84.3058C77.9769 83.6798 77.4904 83.0523 77.004 82.4256C76.6662 81.9918 76.324 81.5618 75.9945 81.1221C75.6552 80.6705 75.7516 80.3299 76.2896 80.1354C78.2436 79.4319 80.2006 78.7366 82.1583 78.042C82.4774 77.9295 82.7315 77.9958 82.9056 78.2112C83.0304 78.3654 83.0729 78.5361 82.9825 78.7217C82.9355 78.8171 82.8787 78.908 82.8226 78.9989C81.7444 80.7361 80.6646 82.4725 79.5894 84.2112C79.4459 84.4422 79.283 84.6315 78.9849 84.6352Z" fill="#1E130F"/>
<path fill-rule="evenodd" clip-rule="evenodd" d="M56.3103 3.56455C56.8722 3.15093 58.4033 1.56429 58.5288 1.24756C57.3011 1.35413 56.0943 1.45847 54.8039 1.56951C55.25 2.17018 55.6378 2.69484 56.0278 3.21801C56.1175 3.33725 56.2169 3.44978 56.3103 3.56455ZM53.1906 1.18422C53.2018 0.799667 53.3871 0.58876 53.7122 0.550007C54.2278 0.488152 54.7463 0.446418 55.2642 0.400957C56.7564 0.272029 58.2493 0.144591 59.7423 0.0178978C59.8798 0.00671904 60.0173 0.00150228 60.1548 1.17753e-05C60.4148 -0.00147874 60.5889 0.138629 60.6868 0.365185C60.7817 0.584289 60.7227 0.7788 60.5538 0.947972C60.0785 1.4227 59.607 1.90189 59.1333 2.37811C58.3794 3.13603 57.6247 3.89321 56.87 4.64964C56.7833 4.73608 56.6996 4.8285 56.6002 4.89631C56.3148 5.09232 56.0652 5.05803 55.8253 4.80167C55.773 4.74652 55.7274 4.68466 55.6819 4.62355C54.9234 3.60852 54.1635 2.59498 53.411 1.57622C53.3057 1.43462 53.2362 1.26694 53.1906 1.18422Z" fill="#1E130F"/>
<path fill-rule="evenodd" clip-rule="evenodd" d="M83.2926 51.9321C82.9504 51.3329 81.7556 49.8208 81.4724 49.6323C81.3423 50.7859 81.2138 51.9277 81.0733 53.1685C81.8699 52.7251 82.5805 52.3286 83.2926 51.9321ZM79.8374 54.1336C79.9391 53.2192 80.0317 52.3703 80.1274 51.5215C80.2447 50.4759 80.3642 49.4303 80.483 48.384C80.4913 48.308 80.4995 48.2327 80.5054 48.1567C80.5256 47.8854 80.5839 47.6298 80.8888 47.5463C81.2108 47.4576 81.4402 47.5962 81.636 47.8549C82.5865 49.1076 83.5489 50.3522 84.5009 51.6042C84.858 52.0737 84.8027 52.3584 84.3014 52.6409C83.1566 53.2862 82.0066 53.9234 80.8581 54.5629C80.8051 54.5927 80.752 54.6247 80.696 54.6478C80.2163 54.8505 79.8217 54.583 79.8374 54.1336Z" fill="#1E130F"/>
<path fill-rule="evenodd" clip-rule="evenodd" d="M32.7427 64.9427L32.7263 64.8287C31.6473 64.816 30.5698 64.7564 29.3974 64.7773C29.7905 65.3027 30.1222 65.7469 30.4645 66.2044C31.2543 65.767 31.9985 65.3549 32.7427 64.9427ZM31.5778 63.7473C32.6478 63.7473 33.7179 63.7496 34.7879 63.7459C35.0442 63.7451 35.2743 63.7913 35.4499 63.994C35.6898 64.2705 35.6517 64.5612 35.3461 64.7691C35.2826 64.8116 35.2138 64.8451 35.1466 64.8816C33.7298 65.6664 32.3138 66.4511 30.8971 67.2351C30.8567 67.2575 30.8179 67.2813 30.7775 67.3029C30.2582 67.5802 30.0759 67.5444 29.7269 67.0876C29.4587 66.7351 29.1964 66.3788 28.9304 66.0248C28.5829 65.5605 28.228 65.1007 27.8903 64.6297C27.7961 64.4986 27.7049 64.3361 27.693 64.1818C27.6646 63.8286 27.8985 63.6393 28.3207 63.6385C29.4064 63.6356 30.4921 63.637 31.5771 63.637C31.5771 63.6743 31.5778 63.7108 31.5778 63.7473Z" fill="#1E130F"/>
<path fill-rule="evenodd" clip-rule="evenodd" d="M83.1544 23.3256C83.7873 23.5403 84.3133 23.7184 84.8573 23.9032C85.269 23.0819 85.6583 22.3061 86.0469 21.5303C86.023 21.5124 85.999 21.4953 85.9751 21.4774C85.0635 22.0744 84.1526 22.6713 83.1544 23.3256ZM85.0545 25.1247C84.988 25.1068 84.8543 25.077 84.725 25.0338C83.7559 24.7058 82.7882 24.3742 81.8191 24.0478C81.5777 23.9658 81.358 23.8689 81.3266 23.5746C81.2953 23.2757 81.4574 23.0968 81.6928 22.9433C83.4966 21.7688 85.2959 20.5876 87.1005 19.4138C87.2245 19.3326 87.3709 19.2566 87.5144 19.2409C87.9194 19.1962 88.2086 19.5718 88.0846 19.9586C88.0621 20.0301 88.0233 20.098 87.9897 20.1658C87.2372 21.6645 86.4825 23.1617 85.733 24.6619C85.6038 24.9212 85.4558 25.1396 85.0545 25.1247Z" fill="#1E130F"/>
<path fill-rule="evenodd" clip-rule="evenodd" d="M89.2996 32.5444C89.7576 31.4765 90.1678 30.5188 90.5788 29.5612C90.5519 29.5418 90.525 29.5232 90.4989 29.5045C89.8443 30.0299 89.1897 30.5561 88.5307 31.0859C88.787 31.5726 89.0186 32.0123 89.2996 32.5444ZM92.6083 27.6265C92.5814 27.704 92.5455 27.8359 92.4917 27.9611C91.6421 29.9345 90.7903 31.9072 89.9384 33.8806C89.9078 33.9507 89.8809 34.0222 89.8435 34.0886C89.65 34.4262 89.2883 34.4962 88.9992 34.2331C88.8789 34.1243 88.7907 33.9716 88.713 33.8262C88.2699 32.9908 87.8327 32.1531 87.3964 31.3147C87.1535 30.8475 87.1692 30.7498 87.5727 30.4242C88.9035 29.351 90.2381 28.2823 91.5719 27.2121C91.6309 27.1644 91.6929 27.119 91.7542 27.0735C91.9313 26.9409 92.1181 26.9237 92.3101 27.0377C92.5111 27.157 92.606 27.3373 92.6083 27.6265Z" fill="#1E130F"/>
<path fill-rule="evenodd" clip-rule="evenodd" d="M57.5268 83.9742C58.0431 83.7968 58.5116 83.6359 59.0877 83.4376C58.1007 82.8213 57.2107 82.2661 56.3208 81.7109C56.2991 81.7332 56.2774 81.7563 56.2565 81.7787C56.672 82.4971 57.0874 83.2148 57.5268 83.9742ZM60.9289 83.6292C60.9304 83.8751 60.8004 84.0308 60.5792 84.1128C60.3222 84.2082 60.0606 84.2924 59.8006 84.3811C59.0638 84.6323 58.3278 84.8879 57.5888 85.1338C57.0971 85.2978 56.9821 85.256 56.7272 84.8178C55.8762 83.3556 55.031 81.889 54.1785 80.4268C54.041 80.1906 53.958 79.9588 54.0828 79.6935C54.2196 79.4006 54.4684 79.303 54.7605 79.4319C54.8166 79.4557 54.8681 79.49 54.9197 79.5221C56.7855 80.6869 58.6499 81.8517 60.5157 83.0151C60.7466 83.1589 60.9252 83.3355 60.9289 83.6292Z" fill="#1E130F"/>
<path fill-rule="evenodd" clip-rule="evenodd" d="M101.635 59.3831C102.571 59.2192 103.415 59.1014 104.316 58.8868C103.572 58.0506 102.889 57.2845 102.143 56.4446C101.967 57.4656 101.807 58.3838 101.635 59.3831ZM100.956 60.6367C100.64 60.6314 100.438 60.4578 100.399 60.1679C100.385 60.0643 100.394 59.954 100.412 59.8504C100.676 58.3204 100.944 56.7919 101.211 55.2626C101.224 55.1881 101.233 55.1106 101.259 55.0398C101.39 54.6836 101.751 54.5524 102.076 54.7574C102.202 54.8364 102.307 54.9549 102.407 55.0674C103.492 56.2851 104.575 57.5051 105.659 58.7243C105.689 58.7586 105.719 58.7929 105.749 58.8279C106.141 59.2952 105.999 59.7237 105.387 59.8564C104.896 59.9637 104.396 60.033 103.9 60.1217C103.014 60.2797 102.128 60.4407 101.242 60.5987C101.137 60.6173 101.03 60.627 100.956 60.6367Z" fill="#1E130F"/>
<path fill-rule="evenodd" clip-rule="evenodd" d="M76.6938 87.2682C76.6662 87.2921 76.6393 87.3152 76.6116 87.339C76.8619 88.1454 77.1123 88.951 77.3686 89.7775C78.0261 89.5994 78.6217 89.4384 79.3031 89.2536C78.3855 88.556 77.5397 87.9121 76.6938 87.2682ZM81.1092 89.4913C81.0987 89.814 80.9523 89.9772 80.5884 90.0756C79.8374 90.2783 79.0842 90.4728 78.3317 90.671C77.9776 90.7634 77.6249 90.8633 77.2692 90.9483C76.7387 91.0757 76.569 90.9848 76.4129 90.4825C75.9526 88.9987 75.4953 87.5156 75.0402 86.0311C74.9109 85.61 74.9603 85.379 75.2136 85.215C75.5341 85.0056 75.7897 85.1711 76.0422 85.3641C76.9636 86.0684 77.8871 86.7696 78.81 87.4717C79.466 87.9702 80.1213 88.4696 80.7789 88.9659C80.9687 89.1097 81.1256 89.2677 81.1092 89.4913Z" fill="#1E130F"/>
<path fill-rule="evenodd" clip-rule="evenodd" d="M105.644 50.8672C104.715 50.1495 103.87 49.5078 103.018 48.8729C102.994 48.8945 102.969 48.9161 102.945 48.9384C103.196 49.7433 103.445 50.5489 103.702 51.3791C104.346 51.2092 104.943 51.052 105.644 50.8672ZM103.35 52.6081C103.019 52.6036 102.88 52.4993 102.778 52.1803C102.573 51.5424 102.378 50.9014 102.181 50.2613C101.916 49.4035 101.65 48.5457 101.392 47.6857C101.349 47.5418 101.307 47.3876 101.315 47.2408C101.337 46.8309 101.745 46.608 102.111 46.7958C102.206 46.8435 102.29 46.9129 102.375 46.9769C103.942 48.1664 105.51 49.355 107.078 50.5452C107.15 50.6004 107.226 50.6548 107.287 50.7211C107.581 51.0453 107.475 51.4947 107.058 51.6377C106.77 51.7369 106.469 51.7987 106.175 51.877C105.378 52.0886 104.583 52.301 103.786 52.5104C103.624 52.5529 103.459 52.5842 103.35 52.6081Z" fill="#1E130F"/>
<path fill-rule="evenodd" clip-rule="evenodd" d="M109.276 14.048C108.575 14.9445 107.926 15.774 107.211 16.6899C108.18 16.5722 109.041 16.5498 109.911 16.3896C109.697 15.6011 109.499 14.8693 109.276 14.048ZM106.426 17.8704C106.289 17.886 106.153 17.9054 106.016 17.9173C105.777 17.9382 105.596 17.8361 105.486 17.6312C105.377 17.4285 105.381 17.2213 105.529 17.0305C105.613 16.9217 105.697 16.8136 105.782 16.7056C106.854 15.3365 107.924 13.966 109 12.6C109.082 12.4956 109.187 12.3906 109.304 12.3369C109.645 12.1804 110.01 12.3861 110.111 12.7662C110.436 13.9876 110.761 15.2091 111.086 16.4298C111.102 16.4887 111.116 16.5476 111.131 16.6072C111.268 17.1475 111.085 17.421 110.531 17.4821C109.939 17.5477 109.346 17.6051 108.754 17.661C107.978 17.7348 107.202 17.8033 106.426 17.8749C106.426 17.8734 106.426 17.8719 106.426 17.8704Z" fill="#1E130F"/>
<path fill-rule="evenodd" clip-rule="evenodd" d="M24.4082 71.7022C24.4254 71.7342 24.4434 71.7662 24.4613 71.7983C25.3071 71.7625 26.1523 71.7267 27.0377 71.6887C26.8711 70.8846 26.7157 70.1356 26.5416 69.2987C25.7899 70.1453 25.0987 70.9241 24.4082 71.7022ZM25.3273 72.8789C24.6548 72.9035 23.9816 72.9288 23.3091 72.9512C23.188 72.9549 23.061 72.9646 22.9444 72.937C22.517 72.8364 22.3593 72.4101 22.6074 72.0487C22.6418 71.998 22.6851 71.9533 22.7255 71.9078C23.9397 70.5343 25.154 69.1616 26.3682 67.7874C26.5319 67.601 26.7269 67.5034 26.9765 67.5645C27.2664 67.6353 27.3949 67.8477 27.4502 68.122C27.6415 69.0632 27.8343 70.0052 28.0263 70.9465C28.0988 71.3049 28.1757 71.6634 28.243 72.0234C28.3357 72.5182 28.1324 72.7753 27.6213 72.7977C26.8569 72.8312 26.0917 72.8543 25.3273 72.8819C25.3273 72.8811 25.3273 72.8804 25.3273 72.8789Z" fill="#1E130F"/>
<path fill-rule="evenodd" clip-rule="evenodd" d="M108.917 66.8506C108.755 67.7941 108.587 68.777 108.401 69.8636C109.271 69.4351 110.04 69.0565 110.89 68.6377C110.194 68.0079 109.564 67.4363 108.917 66.8506ZM112.333 68.7293C112.322 69.0841 112.177 69.2354 111.978 69.339C111.68 69.494 111.377 69.64 111.075 69.7891C110.048 70.2951 109.021 70.8049 107.99 71.3064C107.591 71.5009 107.261 71.3854 107.14 71.0135C107.104 70.9032 107.104 70.7706 107.125 70.6551C107.417 68.9417 107.719 67.2299 108.011 65.5166C108.057 65.246 108.196 65.0687 108.444 64.9748C108.707 64.8749 108.875 65.0351 109.041 65.205C110.054 66.2447 111.072 67.2791 112.077 68.3247C112.207 68.4588 112.282 68.6466 112.333 68.7293Z" fill="#1E130F"/>
<path fill-rule="evenodd" clip-rule="evenodd" d="M79.9899 18.3265C80.3105 18.8549 80.5824 19.3028 80.8567 19.7559C81.376 19.3453 82.1217 18.5217 82.2555 18.2043C81.5247 18.2438 80.8096 18.2825 79.9899 18.3265ZM81.4283 17.1237C82.0993 17.0894 82.7696 17.0551 83.4406 17.0216C83.5474 17.0156 83.6543 17.0059 83.7604 17.0104C84.0145 17.0208 84.1968 17.1505 84.2924 17.3793C84.3836 17.5969 84.326 17.7944 84.1609 17.965C83.8859 18.2497 83.6154 18.5396 83.3427 18.8273C82.7143 19.4921 82.0866 20.1568 81.4574 20.8208C81.3738 20.9095 81.2923 21.0012 81.1989 21.0795C80.8544 21.3716 80.5152 21.3321 80.2776 20.9513C79.8419 20.2537 79.422 19.5465 78.9968 18.843C78.878 18.6477 78.7585 18.4524 78.6449 18.2542C78.3064 17.664 78.5171 17.2705 79.1881 17.2369C79.9346 17.1997 80.6818 17.1646 81.4291 17.1281C81.4291 17.1266 81.4291 17.1251 81.4283 17.1237Z" fill="#1E130F"/>
<mask id="mask1_5_867" style="mask-type:luminance" maskUnits="userSpaceOnUse" x="118" y="36" width="6" height="5">
<path d="M118.982 36.2498H124V40.8286H118.982V36.2498Z" fill="white"/>
</mask>
<g mask="url(#mask1_5_867)">
<path fill-rule="evenodd" clip-rule="evenodd" d="M122.074 39.312C121.521 38.7114 120.907 38.2217 120.605 38.1301C120.53 38.572 120.455 39.011 120.368 39.52C120.968 39.4469 121.488 39.3836 122.074 39.312ZM119.713 40.7362C119.331 40.7407 119.078 40.4336 119.145 39.9962C119.223 39.4842 119.318 38.9744 119.407 38.4639C119.493 37.9683 119.576 37.4728 119.669 36.9779C119.784 36.3661 120.22 36.1954 120.691 36.5934C121.716 37.4616 122.729 38.344 123.749 39.2189C123.953 39.3933 124.052 39.6019 123.972 39.8665C123.89 40.137 123.673 40.2399 123.416 40.2727C122.612 40.3755 121.809 40.4731 121.005 40.5737C120.581 40.6267 120.156 40.6803 119.713 40.7362Z" fill="#1E130F"/>
</g>
<path fill-rule="evenodd" clip-rule="evenodd" d="M80.897 10.3545C80.8298 10.7421 80.7805 11.0305 80.7177 11.3927C81.0203 11.2623 81.2527 11.1631 81.5389 11.0402C81.3267 10.8136 81.1474 10.6221 80.897 10.3545ZM79.4392 12.1618C79.5266 11.658 79.626 11.0886 79.7239 10.5192C79.7964 10.0989 79.8651 9.67859 79.9376 9.25902C79.9533 9.16959 79.969 9.07867 79.9981 8.99222C80.1491 8.54656 80.5937 8.42806 80.9254 8.76491C81.4709 9.31789 81.9969 9.89024 82.5305 10.4544C82.6463 10.5766 82.7673 10.6929 82.8727 10.8233C83.1858 11.2108 83.114 11.5857 82.6612 11.7854C81.8669 12.1364 81.0659 12.474 80.2589 12.7952C79.7807 12.986 79.422 12.7237 79.4392 12.1618Z" fill="#1E130F"/>
</mask>
<g mask="url(#mask0_5_867)">
<rect x="0.0103149" y="-0.897774" width="124" height="91.8978" fill="url(#paint0_linear_5_867)"/>
</g>
<defs>
<linearGradient id="paint0_linear_5_867" x1="62.0103" y1="-0.897774" x2="62.0103" y2="91" gradientUnits="userSpaceOnUse">
<stop stop-color="#048BA8"/>
<stop offset="0.395833" stop-color="#878D4C"/>
<stop offset="0.890625" stop-color="#F18F01"/>
</linearGradient>
</defs>
</svg>
